<?xml version="1.0" encoding="UTF-8"?>
<svg id="Layer_1" data-name="Layer 1" xmlns="http://www.w3.org/2000/svg" version="1.1" viewBox="0 0 246.6 58">
  <defs>
    <style>
      .cls-1 {
        fill: #003087;
      }

      .cls-1, .cls-2 {
        stroke-width: 0px;
      }

      .cls-2 {
        fill: #6cace4;
      }
    </style>
  </defs>
  <path class="cls-1" d="M130.5,7.2c0,4-3.2,7.2-7.2,7.2s-7.2-3.2-7.2-7.2,3.2-7.2,7.2-7.2,7.2,3.2,7.2,7.2Z"/>
  <path class="cls-2" d="M130.5,29c0,3.9-3.2,7.2-7.2,7.2s-7.2-3.2-7.2-7.2,3.2-7.2,7.2-7.2,7.2,3.2,7.2,7.2Z"/>
  <path class="cls-2" d="M108.6,29c0,3.9-3.2,7.2-7.2,7.2s-7.2-3.2-7.2-7.2,3.2-7.2,7.2-7.2,7.2,3.2,7.2,7.2Z"/>
  <path class="cls-2" d="M152.3,29c0,3.9-3.2,7.2-7.2,7.2s-7.2-3.2-7.2-7.2,3.2-7.2,7.2-7.2,7.2,3.2,7.2,7.2Z"/>
  <path class="cls-2" d="M130.5,50.8c0,3.9-3.2,7.2-7.2,7.2s-7.2-3.2-7.2-7.2,3.2-7.2,7.2-7.2,7.2,3.2,7.2,7.2Z"/>
  <path class="cls-1" d="M180.2,38.8l-8.3-12.5-.6-1.2c-.1-.2-.2-.4-.3-.7v14.2h-3.5v-19.4h4.3l7.8,12.3c.6.9.8,1.5,1,2.1v-14.4h3.5v19.5h-3.9Z"/>
  <path class="cls-1" d="M198.1,22.1c-3.7,0-6.4,2.9-6.4,6.8s2.7,6.8,6.4,6.8,6.3-2.9,6.3-6.8-2.7-6.8-6.3-6.8ZM198.1,39c-6,0-10.3-4.2-10.3-10.1s4.2-10,10.3-10,10.3,4.1,10.3,10-4.3,10.1-10.3,10.1Z"/>
  <path class="cls-1" d="M218.1,22.4h-2.4v5.3h2.4c2.3,0,3.4-.8,3.4-2.8s-1-2.6-3.4-2.6ZM221.9,38.6l-4.4-7.7h-1.8v7.7h-3.7v-19.4h6.5c2.8,0,4.1.4,5.3,1.4,1.1,1,1.6,2.4,1.6,4.2s-.4,2.7-1.1,3.6c-.7.9-1.4,1.3-3,1.8l4.8,8.3h-4Z"/>
  <path class="cls-1" d="M240.4,23.7c-1-.8-2.5-1.1-4.6-1.1h-2.9v12.9h2.9c4.4,0,6.9-2.3,6.9-6.5s-.9-4.2-2.2-5.3ZM243.9,35.8c-1.8,1.9-4.3,2.8-7.8,2.8h-7.2v-19.4h7.2c3.7,0,6,.8,7.9,2.8,1.7,1.8,2.6,4.3,2.6,6.8s-1,5.1-2.7,6.9Z"/>
  <path class="cls-1" d="M13.8,38.6v-8.9H2.4v8.9H0v-19.4h2.4v8.3h11.4v-8.3h2.4v19.4h-2.4Z"/>
  <path class="cls-1" d="M22.6,38.6v-19.4h10.9v2h-8.5v6.5h7v2h-7v6.8h8.7v2h-11.1Z"/>
  <path class="cls-1" d="M38.4,38.6v-19.4h2.4v17.3h8.7v2h-11.1Z"/>
  <path class="cls-1" d="M62.7,22.6c-1-.6-1.4-.8-2-1-.7-.2-1.9-.4-2.7-.4-2.2,0-3.7,1.1-3.7,2.7s.9,2.2,4.8,4.3c1.3.7,2.3,1.4,3.1,2,.9.8,1.5,2.1,1.5,3.5,0,3.3-2.5,5.4-6.4,5.4s-2.6-.2-3.6-.6c-.7-.3-1.2-.6-2.5-1.4l1.2-1.9c1.1.7,1.6,1,2.2,1.3.9.3,1.8.5,2.8.5,2.3,0,3.7-1.1,3.7-2.9s0-1-.3-1.4c-.3-.6-.9-1.1-1.6-1.6-.3-.2-1.4-.7-3.2-1.7-2.9-1.6-4.1-3.1-4.1-5.1,0-3.1,2.6-5.1,6.4-5.1s2.3.1,3.3.5c.8.3,1.3.5,2.3,1.1l-1.1,2Z"/>
  <path class="cls-1" d="M68.6,38.6v-19.4h10.9v2h-8.5v6.5h7v2h-7v6.8h8.7v2h-11.1Z"/>
</svg>