<?xml version="1.0" encoding="UTF-8"?>
<svg id="Layer_1" data-name="Layer 1" xmlns="http://www.w3.org/2000/svg" version="1.1" viewBox="0 0 231 58">
  <defs>
    <style>
      .cls-1 {
        fill: #003087;
      }

      .cls-1, .cls-2 {
        stroke-width: 0px;
      }

      .cls-2 {
        fill: #6cace4;
      }
    </style>
  </defs>
  <path class="cls-2" d="M131.8,7.2c0,3.9-3.2,7.2-7.2,7.2s-7.2-3.2-7.2-7.2,3.2-7.2,7.2-7.2,7.2,3.2,7.2,7.2Z"/>
  <path class="cls-2" d="M131.8,29c0,3.9-3.2,7.2-7.2,7.2s-7.2-3.2-7.2-7.2,3.2-7.2,7.2-7.2,7.2,3.2,7.2,7.2Z"/>
  <path class="cls-1" d="M109.9,29c0,3.9-3.2,7.2-7.2,7.2s-7.2-3.2-7.2-7.2,3.2-7.2,7.2-7.2,7.2,3.2,7.2,7.2Z"/>
  <path class="cls-2" d="M153.6,29c0,3.9-3.2,7.2-7.2,7.2s-7.2-3.2-7.2-7.2,3.2-7.2,7.2-7.2,7.2,3.2,7.2,7.2Z"/>
  <path class="cls-2" d="M131.8,50.8c0,3.9-3.2,7.2-7.2,7.2s-7.2-3.2-7.2-7.2,3.2-7.2,7.2-7.2,7.2,3.2,7.2,7.2Z"/>
  <path class="cls-1" d="M13.8,38.6v-8.8H2.4v8.8H0v-19.4h2.4v8.3h11.4v-8.3h2.4v19.3h-2.4Z"/>
  <path class="cls-1" d="M22.9,38.6v-19.4h10.9v2h-8.5v6.4h7v2h-7v6.8h8.7v2h-11.1Z"/>
  <path class="cls-1" d="M39.1,38.6v-19.4h2.4v17.3h8.6v2h-11Z"/>
  <path class="cls-1" d="M63.7,22.6c-1-.6-1.4-.8-2-1-.7-.2-1.9-.4-2.7-.4-2.2,0-3.7,1.1-3.7,2.7s.8,2.2,4.8,4.3c1.3.7,2.3,1.4,3,2,.9.8,1.5,2.1,1.5,3.5,0,3.3-2.5,5.4-6.4,5.4s-2.6-.2-3.6-.6c-.7-.3-1.2-.6-2.5-1.5l1.2-1.9c1.1.7,1.6,1,2.2,1.3.8.3,1.8.5,2.8.5,2.3,0,3.7-1.1,3.7-2.9s0-1-.3-1.4c-.3-.6-.9-1.1-1.7-1.6-.3-.2-1.4-.7-3.2-1.7-2.9-1.6-4.1-3.1-4.1-5.1,0-3.1,2.6-5.1,6.4-5.1s2.3.1,3.2.5c.8.3,1.2.5,2.3,1.1l-1.1,2Z"/>
  <path class="cls-1" d="M69.9,38.6v-19.4h10.9v2h-8.5v6.4h7v2h-7v6.8h8.7v2h-11.1Z"/>
  <path class="cls-1" d="M175.8,39.2h-2.6l-7.2-19.9h4l4.4,13.1c0,.3.2.6.2.9,0-.3,0-.5.2-.9l4.2-13.1h3.9l-7.2,19.9Z"/>
  <path class="cls-1" d="M186,38.6v-19.3h11.8v3.1h-8.1v4.8h6.6v3.1h-6.6v5.2h8.5v3.1h-12.2Z"/>
  <path class="cls-1" d="M212.8,23.9c-2.1-.9-3.7-1.4-5-1.4s-2.8.7-2.8,1.8.5,1.3,1.9,2.1c3,1.6,4.9,2.8,5.8,3.7.8.8,1.3,2.1,1.3,3.5,0,3.5-2.5,5.5-6.8,5.5s-1.2,0-1.7-.1c-1.4-.2-2-.4-4-1.4l-1.2-.6,1.6-3.4c1.4.8,2,1,2.8,1.4,1,.3,2,.6,2.8.6,1.7,0,2.8-.8,2.8-1.9s-.4-1.4-1.7-2.1l-3-1.7c-3.4-2-4.5-3.2-4.5-5.4s.3-2,.8-2.7c.3-.5.8-1,1.5-1.5,1.4-1,2.6-1.3,4.9-1.3s2.4.1,3.6.5c.9.3,1.5.5,2.8,1.1,0,0-1.5,3.4-1.5,3.4Z"/>
  <path class="cls-1" d="M225.1,22.4v16.2h-3.7v-16.2h-5.8v-3.1h15.3v3.1h-5.8Z"/>
</svg>