<?xml version="1.0" encoding="utf-8"?>
<!-- Generator: Adobe Illustrator 22.0.1, SVG Export Plug-In . SVG Version: 6.00 Build 0)  -->
<svg version="1.1" id="Layer_1" xmlns="http://www.w3.org/2000/svg" xmlns:xlink="http://www.w3.org/1999/xlink" x="0px" y="0px"
	 viewBox="0 0 163.3 27.5" style="enable-background:new 0 0 163.3 27.5;" xml:space="preserve">
<style type="text/css">
	.st0{fill:#464B4E;}
	.st1{fill:#FAFDFF;}
	.st2{fill:#FFFFFF;}
</style>
<circle class="st0" cx="59" cy="3.4" r="3.4"/>
<circle class="st1" cx="59" cy="13.7" r="3.4"/>
<circle class="st0" cx="48.6" cy="13.7" r="3.4"/>
<circle class="st0" cx="69.3" cy="13.7" r="3.4"/>
<circle class="st0" cx="59" cy="24.1" r="3.4"/>
<g>
	<g>
		<g>
			<path class="st2" d="M6.5,18.3v-4.2H1.1v4.2H0V9.2h1.1v3.9h5.4V9.2h1.1v9.2H6.5z"/>
			<path class="st2" d="M10.8,18.3V9.2h5.1v1h-4v3.1h3.3v1h-3.3v3.2H16v1h-5.2L10.8,18.3L10.8,18.3z"/>
			<path class="st2" d="M18.5,18.3V9.2h1.1v8.2h4.1v1L18.5,18.3L18.5,18.3z"/>
			<path class="st2" d="M30.1,10.7c-0.5-0.3-0.7-0.4-1-0.5c-0.3-0.1-0.9-0.2-1.3-0.2c-1,0-1.7,0.5-1.7,1.3c0,0.7,0.4,1,2.3,2
				c0.6,0.3,1.1,0.6,1.4,0.9c0.4,0.4,0.7,1,0.7,1.7c0,1.6-1.2,2.6-3,2.6c-0.6,0-1.2-0.1-1.7-0.3c-0.3-0.1-0.6-0.3-1.2-0.7l0.6-0.9
				c0.5,0.3,0.7,0.5,1.1,0.6c0.4,0.2,0.8,0.2,1.3,0.2c1.1,0,1.7-0.5,1.7-1.4c0-0.3,0-0.5-0.1-0.7c-0.2-0.3-0.4-0.5-0.8-0.8
				c-0.2-0.1-0.7-0.3-1.5-0.8c-1.4-0.7-2-1.5-2-2.4c0-1.5,1.2-2.4,3-2.4c0.5,0,1.1,0.1,1.5,0.2c0.4,0.1,0.6,0.2,1.1,0.5L30.1,10.7z"
				/>
			<path class="st2" d="M33.1,18.3V9.2h5.1v1h-4v3.1h3.3v1h-3.3v3.2h4.1v1h-5.2C33.1,18.5,33.1,18.3,33.1,18.3z"/>
		</g>
		<g>
			<path class="st2" d="M6.5,18.3v-4.2H1.1v4.2H0V9.2h1.1v3.9h5.4V9.2h1.1v9.2H6.5z"/>
			<path class="st2" d="M10.8,18.3V9.2h5.1v1h-4v3.1h3.3v1h-3.3v3.2H16v1h-5.2L10.8,18.3L10.8,18.3z"/>
			<path class="st2" d="M18.5,18.3V9.2h1.1v8.2h4.1v1L18.5,18.3L18.5,18.3z"/>
			<path class="st2" d="M30.1,10.7c-0.5-0.3-0.7-0.4-1-0.5c-0.3-0.1-0.9-0.2-1.3-0.2c-1,0-1.7,0.5-1.7,1.3c0,0.7,0.4,1,2.3,2
				c0.6,0.3,1.1,0.6,1.4,0.9c0.4,0.4,0.7,1,0.7,1.7c0,1.6-1.2,2.6-3,2.6c-0.6,0-1.2-0.1-1.7-0.3c-0.3-0.1-0.6-0.3-1.2-0.7l0.6-0.9
				c0.5,0.3,0.7,0.5,1.1,0.6c0.4,0.2,0.8,0.2,1.3,0.2c1.1,0,1.7-0.5,1.7-1.4c0-0.3,0-0.5-0.1-0.7c-0.2-0.3-0.4-0.5-0.8-0.8
				c-0.2-0.1-0.7-0.3-1.5-0.8c-1.4-0.7-2-1.5-2-2.4c0-1.5,1.2-2.4,3-2.4c0.5,0,1.1,0.1,1.5,0.2c0.4,0.1,0.6,0.2,1.1,0.5L30.1,10.7z"
				/>
			<path class="st2" d="M33.1,18.3V9.2h5.1v1h-4v3.1h3.3v1h-3.3v3.2h4.1v1h-5.2C33.1,18.5,33.1,18.3,33.1,18.3z"/>
		</g>
	</g>
</g>
<g>
	<g>
		<g>
			<path class="st2" d="M87.7,18.3v-6.7c-0.1,0.5-0.1,0.5-0.3,1.3l-2.1,5.4h-1.6l-1.9-5.3c-0.2-0.5-0.2-0.7-0.3-1.5v6.8h-1.6V9.2H82
				l2.4,6.5c0.1,0.3,0.1,0.4,0.2,0.7c0.1-0.4,0.1-0.5,0.2-0.7l2.5-6.5h2.1v9.2H87.7L87.7,18.3z"/>
			<path class="st2" d="M92,18.3V9.2h1.8v9.2H92z"/>
			<path class="st2" d="M103.3,16.9c-0.8,0.9-2.1,1.3-3.7,1.3h-3.4V9.1h3.4c1.7,0,2.8,0.4,3.7,1.3c0.8,0.8,1.2,2,1.2,3.2
				C104.6,14.9,104.3,16.1,103.3,16.9z M101.8,11.2c-0.5-0.4-1.2-0.5-2.2-0.5h-1.4v6.1h1.4c2.1,0,3.2-1.1,3.2-3.1
				C102.8,12.6,102.3,11.8,101.8,11.2z"/>
			<path class="st2" d="M109.7,10.6v7.7h-1.7v-7.7h-2.7V9.2h7.2v1.5H109.7z"/>
			<path class="st2" d="M112.7,14.8v-1.5h2.9v1.5H112.7z"/>
			<path class="st2" d="M124.1,18.4l-3.9-5.9c0,0-0.1-0.2-0.2-0.4c-0.1-0.1-0.1-0.2-0.1-0.2c-0.1-0.1-0.1-0.2-0.1-0.3v6.7h-1.7V9.2
				h2l3.8,6c0,0,0.1,0.1,0.1,0.2c0,0.1,0.1,0.2,0.1,0.2l0.1,0.2l0.1,0.2V9.2h1.7v9.2L124.1,18.4L124.1,18.4z"/>
			<path class="st2" d="M132.8,18.5c-2.9,0-4.9-2-4.9-4.8s2-4.7,4.9-4.7s4.9,1.9,4.9,4.7C137.5,16.5,135.6,18.5,132.8,18.5z
				 M132.8,10.6c-1.7,0-3,1.4-3,3.2c0,1.9,1.3,3.2,3,3.2s3-1.4,3-3.2S134.4,10.6,132.8,10.6z"/>
			<path class="st2" d="M144.2,18.3l-2.1-3.7h-0.9v3.7h-1.7V9.2h3.1c1.3,0,1.9,0.2,2.5,0.7c0.5,0.5,0.8,1.1,0.8,2
				c0,0.7-0.2,1.3-0.5,1.7c-0.3,0.4-0.7,0.6-1.4,0.8l2.3,3.9H144.2L144.2,18.3L144.2,18.3z M142.2,10.6h-1.1v2.5h1.1
				c1.1,0,1.6-0.4,1.6-1.3C143.8,11,143.4,10.6,142.2,10.6z"/>
			<path class="st2" d="M154.3,18.2c-1,0.2-1.5,0.3-2.3,0.3c-3,0-5.1-1.9-5.1-4.8c0-1.4,0.5-2.6,1.5-3.5c0.9-0.9,2-1.2,3.6-1.2
				c0.7,0,1.3,0.1,1.9,0.2c0.4,0.1,0.7,0.2,1.4,0.5l-0.4,1.5c-0.3-0.1-0.6-0.2-0.8-0.3c-0.7-0.2-1.3-0.3-1.9-0.3
				c-2.1,0-3.5,1.3-3.5,3.1c0,1.9,1.6,3.3,3.6,3.3c0.4,0,0.7,0,1.2-0.2v-2.5h1.7V18C154.7,18.1,154.4,18.1,154.3,18.2z"/>
			<path class="st2" d="M157.5,18.3V9.2h5.6v1.5h-3.7V13h3.1v1.5h-3.1v2.4h4v1.5L157.5,18.3L157.5,18.3z"/>
		</g>
		<g>
			<path class="st2" d="M87.7,18.3v-6.7c-0.1,0.5-0.1,0.5-0.3,1.3l-2.1,5.4h-1.6l-1.9-5.3c-0.2-0.5-0.2-0.7-0.3-1.5v6.8h-1.6V9.2H82
				l2.4,6.5c0.1,0.3,0.1,0.4,0.2,0.7c0.1-0.4,0.1-0.5,0.2-0.7l2.5-6.5h2.1v9.2H87.7L87.7,18.3z"/>
			<path class="st2" d="M92,18.3V9.2h1.8v9.2H92z"/>
			<path class="st2" d="M103.3,16.9c-0.8,0.9-2.1,1.3-3.7,1.3h-3.4V9.1h3.4c1.7,0,2.8,0.4,3.7,1.3c0.8,0.8,1.2,2,1.2,3.2
				C104.6,14.9,104.3,16.1,103.3,16.9z M101.8,11.2c-0.5-0.4-1.2-0.5-2.2-0.5h-1.4v6.1h1.4c2.1,0,3.2-1.1,3.2-3.1
				C102.8,12.6,102.3,11.8,101.8,11.2z"/>
			<path class="st2" d="M109.7,10.6v7.7h-1.7v-7.7h-2.7V9.2h7.2v1.5H109.7z"/>
			<path class="st2" d="M112.7,14.8v-1.5h2.9v1.5H112.7z"/>
			<path class="st2" d="M124.1,18.4l-3.9-5.9c0,0-0.1-0.2-0.2-0.4c-0.1-0.1-0.1-0.2-0.1-0.2c-0.1-0.1-0.1-0.2-0.1-0.3v6.7h-1.7V9.2
				h2l3.8,6c0,0,0.1,0.1,0.1,0.2c0,0.1,0.1,0.2,0.1,0.2l0.1,0.2l0.1,0.2V9.2h1.7v9.2L124.1,18.4L124.1,18.4z"/>
			<path class="st2" d="M132.8,18.5c-2.9,0-4.9-2-4.9-4.8s2-4.7,4.9-4.7s4.9,1.9,4.9,4.7C137.5,16.5,135.6,18.5,132.8,18.5z
				 M132.8,10.6c-1.7,0-3,1.4-3,3.2c0,1.9,1.3,3.2,3,3.2s3-1.4,3-3.2S134.4,10.6,132.8,10.6z"/>
			<path class="st2" d="M144.2,18.3l-2.1-3.7h-0.9v3.7h-1.7V9.2h3.1c1.3,0,1.9,0.2,2.5,0.7c0.5,0.5,0.8,1.1,0.8,2
				c0,0.7-0.2,1.3-0.5,1.7c-0.3,0.4-0.7,0.6-1.4,0.8l2.3,3.9H144.2L144.2,18.3L144.2,18.3z M142.2,10.6h-1.1v2.5h1.1
				c1.1,0,1.6-0.4,1.6-1.3C143.8,11,143.4,10.6,142.2,10.6z"/>
			<path class="st2" d="M154.3,18.2c-1,0.2-1.5,0.3-2.3,0.3c-3,0-5.1-1.9-5.1-4.8c0-1.4,0.5-2.6,1.5-3.5c0.9-0.9,2-1.2,3.6-1.2
				c0.7,0,1.3,0.1,1.9,0.2c0.4,0.1,0.7,0.2,1.4,0.5l-0.4,1.5c-0.3-0.1-0.6-0.2-0.8-0.3c-0.7-0.2-1.3-0.3-1.9-0.3
				c-2.1,0-3.5,1.3-3.5,3.1c0,1.9,1.6,3.3,3.6,3.3c0.4,0,0.7,0,1.2-0.2v-2.5h1.7V18C154.7,18.1,154.4,18.1,154.3,18.2z"/>
			<path class="st2" d="M157.5,18.3V9.2h5.6v1.5h-3.7V13h3.1v1.5h-3.1v2.4h4v1.5L157.5,18.3L157.5,18.3z"/>
		</g>
	</g>
</g>
</svg>
