<?xml version="1.0" encoding="utf-8"?>
<!-- Generator: Adobe Illustrator 22.0.1, SVG Export Plug-In . SVG Version: 6.00 Build 0)  -->
<svg version="1.1" id="Layer_1" xmlns="http://www.w3.org/2000/svg" xmlns:xlink="http://www.w3.org/1999/xlink" x="0px" y="0px"
	 viewBox="0 0 134.4 27.4" style="enable-background:new 0 0 134.4 27.4;" xml:space="preserve">
<style type="text/css">
	.st0{fill:#464B4E;}
	.st1{fill:#FFFFFF;}
</style>
<circle class="st0" cx="58.9" cy="3.4" r="3.4"/>
<circle class="st0" cx="58.9" cy="13.7" r="3.4"/>
<circle class="st0" cx="48.6" cy="13.7" r="3.4"/>
<circle class="st1" cx="69.3" cy="13.7" r="3.4"/>
<circle class="st1" cx="58.9" cy="24.1" r="3.4"/>
<g>
	<path class="st1" d="M6.5,18.3v-4.2H1.2v4.2H0V9.1h1.2V13h5.4V9.1h1.2v9.2H6.5z"/>
	<path class="st1" d="M10.8,18.3V9.1h5.1v1h-4v3h3.3v1h-3.3v3.2H16v1C16,18.3,10.8,18.3,10.8,18.3z"/>
	<path class="st1" d="M18.2,18.3V9.1h1.2v8.2h4.1v1C23.5,18.3,18.2,18.3,18.2,18.3z"/>
	<path class="st1" d="M29.7,10.6c-0.5-0.3-0.7-0.3-1-0.5c-0.3-0.1-0.9-0.2-1.2-0.2c-1,0-1.7,0.5-1.7,1.3c0,0.7,0.4,1,2.3,2
		c0.6,0.3,1.1,0.6,1.4,1c0.4,0.3,0.7,1,0.7,1.7c0,1.6-1.2,2.6-3,2.6c-0.6,0-1.2-0.1-1.7-0.3c-0.3-0.1-0.6-0.3-1.2-0.7l0.6-0.9
		c0.5,0.3,0.8,0.5,1,0.6c0.4,0.1,0.8,0.2,1.3,0.2c1.1,0,1.7-0.5,1.7-1.4c0-0.3-0.1-0.5-0.1-0.6c-0.1-0.3-0.4-0.6-0.8-0.8
		c-0.1-0.1-0.7-0.3-1.5-0.8c-1.4-0.8-1.9-1.4-1.9-2.4c0-1.4,1.2-2.4,3-2.4c0.6,0,1.1,0.1,1.5,0.2c0.3,0.1,0.6,0.2,1.1,0.6L29.7,10.6
		z"/>
	<path class="st1" d="M32.5,18.3V9.1h5.2v1h-4v3H37v1h-3.3v3.2h4.1v1C37.8,18.3,32.5,18.3,32.5,18.3z"/>
</g>
<g>
	<path class="st1" d="M85.3,11.2c-1-0.4-1.8-0.6-2.4-0.6c-0.8,0-1.4,0.3-1.4,0.8c0,0.4,0.2,0.6,0.9,1c1.4,0.8,2.3,1.3,2.8,1.8
		c0.4,0.4,0.6,1,0.6,1.7c0,1.7-1.2,2.6-3.2,2.6c-0.3,0-0.6,0-0.8-0.1c-0.6-0.1-1-0.2-1.9-0.6c-0.1-0.1-0.3-0.1-0.6-0.3l0.8-1.6
		c0.7,0.3,1,0.5,1.3,0.6c0.5,0.1,1,0.3,1.3,0.3c0.8,0,1.3-0.3,1.3-0.9c0-0.4-0.2-0.6-0.8-1l-1.4-0.8c-1.7-1-2.1-1.5-2.1-2.6
		c0-0.5,0.1-1,0.3-1.3c0.1-0.2,0.4-0.5,0.7-0.7C81.2,9.1,81.8,9,82.8,9c0.6,0,1.2,0,1.7,0.2c0.4,0.1,0.7,0.2,1.3,0.6L85.3,11.2z"/>
	<path class="st1" d="M91.8,18.5c-1.2,0-2.2-0.3-3.2-1l-1,1l-0.8-0.8l1-1c-0.7-1-1-1.9-1-3c0-2.8,2-4.8,4.8-4.8c1.3,0,2.3,0.3,3.2,1
		l1-0.9l0.8,0.7l-1,1c0.6,0.8,1,1.9,1,3C96.6,16.5,94.6,18.5,91.8,18.5z M91.7,10.3c-1.7,0-3,1.4-3,3.3c0,0.8,0.1,1.3,0.4,1.8
		l4.5-4.3C93,10.6,92.4,10.3,91.7,10.3z M94.3,11.9l-4.5,4.3c0.6,0.5,1.2,0.8,1.9,0.8c1.7,0,3-1.4,3-3.3
		C94.7,13,94.7,12.5,94.3,11.9z"/>
	<path class="st1" d="M103,18.3l-2.1-3.7H100v3.7h-1.7V9.1h3c1.3,0,1.9,0.1,2.5,0.7c0.5,0.5,0.8,1.1,0.8,2c0,0.7-0.1,1.3-0.5,1.7
		c-0.3,0.4-0.7,0.6-1.4,0.8l2.3,3.9L103,18.3L103,18.3z M101.2,10.5H100v2.6h1.2c1.1,0,1.6-0.4,1.6-1.3S102.3,10.5,101.2,10.5z"/>
	<path class="st1" d="M105.6,15.9v-1.5h2.9v1.5H105.6z"/>
	<path class="st1" d="M114.3,18.5c-1.2,0-2.2-0.3-3.2-1l-1,1l-0.8-0.8l1-1c-0.7-1-1-1.9-1-3c0-2.8,2-4.8,4.8-4.8
		c1.3,0,2.3,0.3,3.2,1l0.9-0.9l0.8,0.7l-1,1c0.6,0.8,1,1.9,1,3C119.2,16.5,117.2,18.5,114.3,18.5z M114.3,10.3c-1.7,0-3,1.4-3,3.3
		c0,0.8,0.1,1.3,0.4,1.8l4.5-4.3C115.5,10.6,115,10.3,114.3,10.3z M116.9,11.9l-4.5,4.3c0.6,0.5,1.2,0.8,1.9,0.8c1.7,0,3-1.4,3-3.3
		C117.3,13,117.2,12.5,116.9,11.9z"/>
	<path class="st1" d="M126,11.2c-1-0.4-1.8-0.6-2.3-0.6c-0.8,0-1.4,0.3-1.4,0.8c0,0.4,0.2,0.6,0.9,1c1.4,0.8,2.3,1.3,2.8,1.8
		c0.4,0.4,0.6,1,0.6,1.7c0,1.7-1.2,2.6-3.2,2.6c-0.3,0-0.6,0-0.8-0.1c-0.6-0.1-1-0.2-1.9-0.6c-0.1-0.1-0.3-0.1-0.6-0.3l0.8-1.7
		c0.7,0.3,1,0.5,1.3,0.6c0.5,0.1,1,0.3,1.3,0.3c0.8,0,1.3-0.3,1.3-0.9c0-0.4-0.2-0.6-0.8-1l-1.4-0.8c-1.7-1-2.1-1.5-2.1-2.6
		c0-0.5,0.1-1,0.3-1.3c0.1-0.2,0.4-0.5,0.7-0.7c0.7-0.5,1.2-0.6,2.3-0.6c0.6,0,1.2,0.1,1.7,0.2c0.4,0.1,0.7,0.2,1.3,0.6L126,11.2z"
		/>
	<path class="st1" d="M131.7,10.5v7.7H130v-7.7h-2.8V9h7.2v1.5H131.7z"/>
</g>
</svg>
