<svg width="64" height="20" xmlns="http://www.w3.org/2000/svg" data-name="Layer 1" version="1.1">
 <g>
  <title>Layer 1</title>
  <path class="cls-2" d="m43.52249,4.75c-1,-0.8 -2.5,-1.1 -4.60001,-1.1l-2.89999,0l0,12.8l2.89999,0c4.40002,0 6.79999,-2.3 6.79999,-6.4s-0.79999,-4.2 -2.19997,-5.2l0,-0.1zm3.5,11.99999c-1.8,1.9 -4.30003,2.8 -7.8,2.8l-7.10004,0l0,-19.2l7.10004,0c3.59998,0 5.89996,0.8 7.8,2.8c1.69997,1.8 2.59998,4.2 2.59998,6.7s-1,5 -2.69998,6.9l0.10001,0l-0.00001,0z" stroke-width="0px" fill="#003087" id="svg_14"/>
  <path class="cls-2" d="m26.67094,19.6l-6.39999,-9.2l0,9.2l-3.70001,0l0,-19.3l3.70001,0l0,9l6,-9l4.19998,0l-6.60001,9.4l7,9.9l-4.19998,0z" stroke-width="0px" fill="#003087" id="svg_18"/>
  <path class="cls-2" d="m51.91067,19.6l0,-19.3l11.70001,0l0,3.1l-8.10001,0l0,4.8l6.60001,0l0,3.1l-6.60001,0l0,5.1l8.39999,0l0,3.1l-12.10001,0l0.10001,0.1l0.00001,0z" stroke-width="0px" fill="#003087" id="svg_19"/>
  <path class="cls-2" d="m12.70001,4.9c-2,-0.9 -3.70001,-1.4 -5,-1.4s-2.8,0.7 -2.8,1.8s0.5,1.3 1.8,2c2.89999,1.6 4.89999,2.8 5.79999,3.7c0.80002,0.8 1.30002,2.1 1.30002,3.4c0,3.4 -2.5,5.5 -6.80002,5.5s-1.19998,0 -1.69998,-0.1c-1.39999,-0.2 -2,-0.4 -4,-1.3l-1.30002,-0.6l1.5,-3.4c1.40002,0.8 2,1.1 2.70001,1.3c1,0.4 2,0.6 2.79999,0.6c1.70001,0 2.80002,-0.8 2.80002,-1.9s-0.39999,-1.4 -1.70001,-2.1l-3,-1.7c-3.39999,-2 -4.5,-3.2 -4.5,-5.3s0.30003,-2 0.80003,-2.7c0.29999,-0.5 0.79999,-1 1.39999,-1.4c1.39999,-1 2.60001,-1.3 4.79999,-1.3s2.39999,0.1 3.60001,0.5c0.89999,0.3 1.5,0.5 2.70001,1.1l-1.5,3.3l0.29999,0l-0.00001,0z" stroke-width="0px" fill="#003087" id="svg_22"/>
 </g>

</svg>