<?xml version="1.0" encoding="UTF-8"?>
<svg id="svg2" xmlns="http://www.w3.org/2000/svg" xmlns:svg="http://www.w3.org/2000/svg" xmlns:sodipodi="http://sodipodi.sourceforge.net/DTD/sodipodi-0.dtd" xmlns:rdf="http://www.w3.org/1999/02/22-rdf-syntax-ns#" xmlns:inkscape="http://www.inkscape.org/namespaces/inkscape" xmlns:dc="http://purl.org/dc/elements/1.1/" xmlns:cc="http://creativecommons.org/ns#" version="1.1" viewBox="0 0 190.5 76.6">
  <defs>
    <style>
      .cls-1 {
        fill: #6da7df;
      }

      .cls-1, .cls-2 {
        stroke-width: 0px;
      }

      .cls-2 {
        fill: #fff;
      }
    </style>
  </defs>
  <sodipodi:namedview id="namedview4" bordercolor="#666666" borderopacity="1" gridtolerance="10" guidetolerance="10" inkscape:pageopacity="0" inkscape:pageshadow="2" inkscape:window-height="480" inkscape:window-width="640" objecttolerance="10" pagecolor="#ffffff"/>
  <g id="g10" inkscape:groupmode="layer" inkscape:label="ink_ext_XXXXXX">
    <g id="g12">
      <path id="path14" class="cls-2" d="M47.7,9.4c0,5.2-4.2,9.5-9.5,9.5s-9.4-4.2-9.4-9.5S33.1,0,38.3,0s9.5,4.2,9.5,9.4"/>
      <path id="path16" class="cls-1" d="M47.7,38.3c0,5.2-4.2,9.4-9.5,9.4s-9.4-4.2-9.4-9.4,4.2-9.5,9.4-9.5,9.5,4.2,9.5,9.5"/>
      <path id="path18" class="cls-1" d="M18.9,38.3c0,5.2-4.2,9.4-9.4,9.4S0,43.5,0,38.3s4.2-9.5,9.4-9.5,9.4,4.2,9.4,9.5"/>
      <path id="path20" class="cls-1" d="M76.6,38.3c0,5.2-4.2,9.4-9.4,9.4s-9.4-4.2-9.4-9.4,4.2-9.5,9.4-9.5,9.4,4.2,9.4,9.5"/>
      <path id="path22" class="cls-1" d="M47.7,67.1c0,5.2-4.2,9.4-9.5,9.4s-9.4-4.2-9.4-9.4,4.2-9.5,9.4-9.5,9.5,4.2,9.5,9.5"/>
      <path id="path24" class="cls-2" d="M115.8,27.1c-2.8-1.2-5.1-1.9-6.8-1.9s-3.9,1-3.9,2.4.6,1.8,2.5,2.8c4,2.2,6.7,3.8,7.9,5.1,1.1,1.1,1.8,2.9,1.8,4.7,0,4.7-3.4,7.5-9.3,7.5s-1.6,0-2.4-.2c-1.9-.3-2.8-.6-5.5-1.8-.4-.2-1-.4-1.7-.8l2.1-4.6c1.9,1,2.7,1.4,3.8,1.8,1.3.5,2.8.8,3.8.8,2.3,0,3.8-1,3.8-2.6s-.6-1.9-2.3-2.8l-4.1-2.3c-4.7-2.7-6.1-4.4-6.1-7.3s.4-2.7,1-3.7c.4-.7,1.1-1.4,2-2,1.9-1.3,3.6-1.8,6.6-1.8s3.3.2,5,.7c1.3.4,2,.7,3.8,1.5l-2,4.5"/>
      <path id="path26" class="cls-2" d="M136.2,47.2l-8.8-12.6v12.6h-5v-26.4h5v12.3l8.3-12.3h5.8l-9.1,12.8,9.6,13.6h-5.8"/>
      <path id="path28" class="cls-2" d="M160.8,26.8c-1.4-1-3.4-1.6-6.3-1.6h-4v17.5h4c6,0,9.4-3.2,9.4-8.8s-1.2-5.8-3-7.2ZM165.6,43.3c-2.4,2.6-5.9,3.9-10.7,3.9h-9.8v-26.4h9.8c5,0,8.1,1.1,10.7,3.9,2.3,2.4,3.6,5.8,3.6,9.2s-1.3,6.9-3.6,9.4"/>
      <path id="path30" class="cls-2" d="M173.9,47.2v-26.4h16.1v4.3h-11v6.5h9v4.3h-9v7h11.6v4.3h-16.6"/>
    </g>
  </g>
</svg>