<?xml version="1.0" encoding="UTF-8" standalone="no"?>
<svg
   version="1.1"
   id="svg2"
   xml:space="preserve"
   width="91.998131"
   height="27.3592"
   viewBox="0 0 45.999065 13.6796"
   sodipodi:docname="logo-skde.svg"
   inkscape:version="1.3.2 (091e20ef0f, 2023-11-25)"
   xmlns:inkscape="http://www.inkscape.org/namespaces/inkscape"
   xmlns:sodipodi="http://sodipodi.sourceforge.net/DTD/sodipodi-0.dtd"
   xmlns="http://www.w3.org/2000/svg"
   xmlns:svg="http://www.w3.org/2000/svg"
   xmlns:rdf="http://www.w3.org/1999/02/22-rdf-syntax-ns#"
   xmlns:cc="http://creativecommons.org/ns#"
   xmlns:dc="http://purl.org/dc/elements/1.1/"><metadata
     id="metadata8"><rdf:RDF><cc:Work
         rdf:about=""><dc:format>image/svg+xml</dc:format><dc:type
           rdf:resource="http://purl.org/dc/dcmitype/StillImage" /></cc:Work></rdf:RDF></metadata><defs
     id="defs6" /><sodipodi:namedview
     pagecolor="#ffffff"
     bordercolor="#666666"
     borderopacity="1"
     objecttolerance="10"
     gridtolerance="10"
     guidetolerance="10"
     inkscape:pageopacity="0"
     inkscape:pageshadow="2"
     inkscape:window-width="1499"
     inkscape:window-height="1216"
     id="namedview4"
     inkscape:showpageshadow="2"
     inkscape:pagecheckerboard="0"
     inkscape:deskcolor="#d1d1d1"
     inkscape:zoom="4.9139018"
     inkscape:cx="-3.2560683"
     inkscape:cy="17.908376"
     inkscape:window-x="26"
     inkscape:window-y="23"
     inkscape:window-maximized="0"
     inkscape:current-layer="g12" /><g
     id="g10"
     inkscape:groupmode="layer"
     inkscape:label="ink_ext_XXXXXX"
     transform="matrix(1.3333333,0,0,-1.3333333,-49.242132,28.098399)"><g
       id="g12"
       transform="scale(0.1)"><path
         d="m 434.41,185.543 c -10.496,4.648 -19.047,7.051 -25.648,7.051 -8.848,0 -14.551,-3.606 -14.551,-9.153 0,-4.199 2.402,-6.746 9.453,-10.496 15.149,-8.105 25.051,-14.406 29.699,-19.054 4.2,-4.2 6.746,-10.801 6.746,-17.696 0,-17.703 -12.894,-28.054 -34.793,-28.054 -3.003,0 -6,0.3 -8.851,0.605 -7.055,1.043 -10.348,2.098 -20.699,6.895 -1.348,0.605 -3.602,1.648 -6.45,2.996 l 7.95,17.402 c 7.199,-3.894 10.199,-5.398 14.097,-6.894 4.95,-1.805 10.348,-2.852 14.25,-2.852 8.703,0 14.399,3.898 14.399,9.902 0,4.2 -2.25,7.043 -8.699,10.645 l -15.297,8.703 c -17.551,10.047 -22.95,16.648 -22.95,27.449 0,4.953 1.497,10.051 3.899,13.801 1.652,2.547 4.199,5.098 7.351,7.344 7.196,4.949 13.348,6.601 24.895,6.601 6.602,0 12.453,-0.754 18.602,-2.55 4.796,-1.504 7.5,-2.547 14.097,-5.704 l -7.5,-16.941"
         style="fill:#25407b;fill-opacity:1;fill-rule:nonzero;stroke:none"
         id="path24" /><path
         d="m 510.762,110.094 -33,47.097 v -47.097 h -18.903 v 98.992 h 18.903 v -46.199 l 31.051,46.199 h 21.746 l -34.047,-48.145 35.847,-50.847 h -21.597"
         style="fill:#25407b;fill-opacity:1;fill-rule:nonzero;stroke:none"
         id="path26" /><path
         d="m 603.012,186.586 c -5.25,3.906 -12.903,5.852 -23.703,5.852 h -15 v -65.696 h 15 c 22.5,0 35.097,11.848 35.097,33 0,11.25 -4.347,21.602 -11.394,26.844 z m 18.148,-61.941 c -9.148,-9.747 -22.203,-14.551 -40.051,-14.551 h -36.597 v 98.992 h 36.746 c 18.75,0 30.449,-4.199 40.199,-14.551 8.551,-9.148 13.352,-21.746 13.352,-34.648 0,-13.192 -4.954,-25.946 -13.649,-35.242"
         style="fill:#25407b;fill-opacity:1;fill-rule:nonzero;stroke:none"
         id="path28" /><path
         d="m 652.063,110.094 v 98.992 h 60.296 V 193.043 H 670.961 V 168.59 h 33.898 v -16.047 h -33.898 v -26.406 h 43.348 v -16.043 h -62.246"
         style="fill:#25407b;fill-opacity:1;fill-rule:nonzero;stroke:none"
         id="path30" /></g></g></svg>
