<svg width="16px" height="20px" viewBox="0 0 16 20" version="1.1" xmlns="http://www.w3.org/2000/svg" xmlns:xlink="http://www.w3.org/1999/xlink">
    <g id="Page-1" stroke="none" stroke-width="1" fill="none" fill-rule="evenodd">
        <g id="Register-&gt;-Resultater-Copy" transform="translate(-325.000000, -2205.000000)" fill="#2D3034">
            <g id="Årsrapporter-Copy" transform="translate(288.000000, 2115.000000)">
                <g id="Button" transform="translate(0.000000, 65.000000)">
                    <g id="Fill-35-+-Fill-37-+-Fill-39-Copy-4" transform="translate(37.000000, 25.000000)">
                        <path d="M14.001,18.0005 L2,18.0005 L2,2.0005 L10,2.0005 L10,6.0005 L14,6.0005 L14.001,18.0005 Z M11.414,0.0005 L2,0.0005 C0.897,0.0005 0,0.8985 0,2.0005 L0,18.0005 C0,19.1025 0.897,20.0005 2,20.0005 L14,20.0005 C15.103,20.0005 16,19.1025 16,18.0005 L16,4.5865 L11.414,0.0005 Z" id="Fill-35"></path>
                        <polygon id="Fill-37" points="10 9.001 4 9.001 4 11.001 10 11.001"></polygon>
                        <polygon id="Fill-39" points="4 15.001 12 15.001 12 13.001 4 13.001"></polygon>
                    </g>
                </g>
            </g>
        </g>
    </g>
</svg>