<svg width="19px" height="20px" viewBox="0 0 19 20" version="1.1" xmlns="http://www.w3.org/2000/svg" xmlns:xlink="http://www.w3.org/1999/xlink">
    <g id="Page-1" stroke="none" stroke-width="1" fill="none" fill-rule="evenodd">
        <g id="Results-frontpage-Copy-2" transform="translate(-381.000000, -474.000000)" fill="#7EBEC7">
            <g id="Top-pic" transform="translate(0.000000, 110.000000)">
                <g id="Velg-sykehus" transform="translate(350.000000, 340.000000)">
                    <g id="Group" transform="translate(31.000000, 24.000000)">
                        <polygon id="Fill-615" points="6.36454545 7.27454545 8.18272727 7.27454545 8.18272727 5.45636364 6.36454545 5.45636364"></polygon>
                        <polygon id="Fill-616" points="10.0009091 7.27454545 11.8190909 7.27454545 11.8190909 5.45636364 10.0009091 5.45636364"></polygon>
                        <polygon id="Fill-617" points="6.36454545 10.9109091 8.18272727 10.9109091 8.18272727 9.09272727 6.36454545 9.09272727"></polygon>
                        <polygon id="Fill-618" points="10.0009091 10.9109091 11.8190909 10.9109091 11.8190909 9.09272727 10.0009091 9.09272727"></polygon>
                        <polygon id="Fill-619" points="2.72818182 14.5472727 4.54636364 14.5472727 4.54636364 12.7290909 2.72818182 12.7290909"></polygon>
                        <polygon id="Fill-620" points="6.36454545 14.5472727 8.18272727 14.5472727 8.18272727 12.7290909 6.36454545 12.7290909"></polygon>
                        <polygon id="Fill-621" points="10.0009091 14.5472727 11.8190909 14.5472727 11.8190909 12.7290909 10.0009091 12.7290909"></polygon>
                        <polygon id="Fill-622" points="13.6372727 14.5472727 15.4554545 14.5472727 15.4554545 12.7290909 13.6372727 12.7290909"></polygon>
                        <path d="M16.365,17.2747273 L10.9104545,17.2747273 L10.9104545,15.4565455 L7.27409091,15.4565455 L7.27409091,17.2747273 L1.81954545,17.2747273 L1.81954545,11.8201818 L4.54681818,11.8201818 C5.04863636,11.8201818 5.45590909,11.4129091 5.45590909,10.9110909 L5.45590909,3.63836364 L7.27409091,3.63836364 C7.77590909,3.63836364 8.18318182,3.23109091 8.18318182,2.72927273 L8.18318182,1.82018182 L10.0013636,1.82018182 L10.0013636,2.72927273 C10.0013636,3.23109091 10.4086364,3.63836364 10.9104545,3.63836364 L12.7286364,3.63836364 L12.7286364,10.9110909 C12.7286364,11.4129091 13.1359091,11.8201818 13.6377273,11.8201818 L16.365,11.8201818 L16.365,17.2747273 Z M17.2740909,10.002 L14.5468182,10.002 L14.5468182,2.72927273 C14.5468182,2.22745455 14.1395455,1.82018182 13.6377273,1.82018182 L11.8195455,1.82018182 L11.8195455,0.911090909 C11.8195455,0.409272727 11.4122727,0.002 10.9104545,0.002 L7.27409091,0.002 C6.77227273,0.002 6.365,0.409272727 6.365,0.911090909 L6.365,1.82018182 L4.54681818,1.82018182 C4.045,1.82018182 3.63772727,2.22745455 3.63772727,2.72927273 L3.63772727,10.002 L0.910454545,10.002 C0.408636364,10.002 0.00136363636,10.4092727 0.00136363636,10.9110909 L0.00136363636,18.1838182 C0.00136363636,18.6856364 0.408636364,19.0929091 0.910454545,19.0929091 L17.2740909,19.0929091 C17.7759091,19.0929091 18.1831818,18.6856364 18.1831818,18.1838182 L18.1831818,10.9110909 C18.1831818,10.4092727 17.7759091,10.002 17.2740909,10.002 L17.2740909,10.002 Z" id="Fill-623"></path>
                    </g>
                </g>
            </g>
        </g>
    </g>
</svg>