<svg width="14px" height="14px" viewBox="0 0 14 14" version="1.1" xmlns="http://www.w3.org/2000/svg" xmlns:xlink="http://www.w3.org/1999/xlink">
    <g id="Page-1" stroke="none" stroke-width="1" fill="none" fill-rule="evenodd">
        <g id="Register-&gt;-Om-registeret" transform="translate(-822.000000, -278.000000)" fill="#A2CFD6">
            <g id="Top-pic" transform="translate(0.000000, 110.000000)">
                <g id="Pic">
                    <g id="Group" transform="translate(822.000000, 168.000000)">
                        <path d="M7.0002625,1.75 C6.0351375,1.75 5.2502625,2.534 5.2502625,3.5 C5.2502625,4.465125 6.0351375,5.25 7.0002625,5.25 C7.9653875,5.25 8.7502625,4.465125 8.7502625,3.5 C8.7502625,2.534 7.9653875,1.75 7.0002625,1.75 M7.0002625,7 C5.0700125,7 3.5002625,5.43025 3.5002625,3.5 C3.5002625,1.56975 5.0700125,0 7.0002625,0 C8.9305125,0 10.5002625,1.56975 10.5002625,3.5 C10.5002625,5.43025 8.9305125,7 7.0002625,7" id="Fill-300"></path>
                        <path d="M1.889125,12.25 L12.11175,12.25 C11.5885,10.668 9.632,9.625 7,9.625 C4.368,9.625 2.412375,10.668 1.889125,12.25 L1.889125,12.25 Z M14,14 L0,14 L0,13.125 C0,10.033625 2.87875,7.875 7,7.875 C11.122125,7.875 14,10.033625 14,13.125 L14,14 Z" id="Fill-301"></path>
                    </g>
                </g>
            </g>
        </g>
    </g>
</svg>