<svg width="32" height="32" viewBox="0 0 32 32" fill="none" xmlns="http://www.w3.org/2000/svg">
<path d="M0 4C0 1.79086 1.79086 0 4 0H28C30.2091 0 32 1.79086 32 4V28C32 30.2091 30.2091 32 28 32H4C1.79086 32 0 30.2091 0 28V4Z" fill="#F5F0D5"/>
<mask id="mask0_4161_9605" style="mask-type:alpha" maskUnits="userSpaceOnUse" x="6" y="6" width="20" height="20">
<rect x="6" y="6" width="20" height="20" fill="#D9D9D9"/>
</mask>
<g mask="url(#mask0_4161_9605)">
<path d="M16.0069 23.5834C14.9637 23.5834 13.9812 23.386 13.0594 22.9913C12.1376 22.5965 11.3308 22.0534 10.639 21.3619C9.9472 20.6704 9.4038 19.8642 9.0088 18.9434C8.61393 18.0227 8.4165 17.0388 8.4165 15.9919C8.4165 14.945 8.61387 13.964 9.00859 13.0492C9.40331 12.1343 9.94643 11.331 10.638 10.6392C11.3295 9.94738 12.1357 9.40398 13.0565 9.00898C13.9772 8.61412 14.961 8.41669 16.008 8.41669C17.0549 8.41669 18.0358 8.61405 18.9507 9.00877C19.8655 9.40349 20.6689 9.94662 21.3607 10.6381C22.0525 11.3297 22.5959 12.1342 22.9909 13.0517C23.3857 13.9693 23.5832 14.9497 23.5832 15.9929C23.5832 17.0361 23.3858 18.0186 22.9911 18.9404C22.5964 19.8622 22.0532 20.669 21.3617 21.3609C20.6702 22.0527 19.8657 22.5961 18.9482 22.9911C18.0305 23.3859 17.0501 23.5834 16.0069 23.5834ZM15.4582 22.4744V9.52565C13.7958 9.73078 12.3871 10.4343 11.2321 11.6363C10.0773 12.8382 9.49984 14.2928 9.49984 16C9.49984 17.7072 10.0773 19.1618 11.2321 20.3638C12.3871 21.5657 13.7958 22.2693 15.4582 22.4744ZM16.5415 22.4744C17.1205 22.4348 17.6686 22.3234 18.1857 22.1402C18.7028 21.957 19.1852 21.702 19.633 21.375H16.5415V22.4744ZM16.5415 20.2917H20.8523C21.0308 20.0802 21.1989 19.8633 21.3565 19.6411C21.514 19.4188 21.6548 19.1913 21.7788 18.9584H16.5415V20.2917ZM16.5415 17.875H22.2065C22.2803 17.6528 22.3364 17.4306 22.3748 17.2084C22.4133 16.9861 22.4464 16.7639 22.4742 16.5417H16.5415V17.875ZM16.5415 15.4584H22.4742C22.4464 15.2361 22.4133 15.0139 22.3748 14.7917C22.3364 14.5695 22.2803 14.3472 22.2065 14.125H16.5415V15.4584ZM16.5415 13.0417H21.7788C21.6502 12.7989 21.5082 12.5689 21.353 12.3517C21.1977 12.1343 21.0308 11.9199 20.8523 11.7084H16.5415V13.0417ZM16.5415 10.625H19.633C19.1852 10.2981 18.7028 10.043 18.1857 9.85981C17.6686 9.67662 17.1205 9.56523 16.5415 9.52565V10.625Z" fill="#483D01"/>
</g>
</svg>
