<svg width="32" height="32" viewBox="0 0 32 32" fill="none" xmlns="http://www.w3.org/2000/svg">
<path d="M0 4C0 1.79086 1.79086 0 4 0H28C30.2091 0 32 1.79086 32 4V28C32 30.2091 30.2091 32 28 32H4C1.79086 32 0 30.2091 0 28V4Z" fill="#F0DEDB"/>
<mask id="mask0_4161_13408" style="mask-type:alpha" maskUnits="userSpaceOnUse" x="6" y="6" width="20" height="20">
<rect x="6" y="6" width="20" height="20" fill="#D9D9D9"/>
</mask>
<g mask="url(#mask0_4161_13408)">
<path d="M16.0069 23.5834C14.9637 23.5834 13.9812 23.386 13.0594 22.9913C12.1376 22.5965 11.3308 22.0534 10.639 21.3619C9.9472 20.6704 9.4038 19.8642 9.0088 18.9434C8.61393 18.0227 8.4165 17.0388 8.4165 15.9919C8.4165 14.945 8.61387 13.964 9.00859 13.0492C9.40331 12.1343 9.94643 11.331 10.638 10.6392C11.3295 9.94738 12.1357 9.40398 13.0565 9.00898C13.9772 8.61412 14.961 8.41669 16.008 8.41669C17.0549 8.41669 18.0358 8.61405 18.9507 9.00877C19.8655 9.40349 20.6689 9.94662 21.3607 10.6381C22.0525 11.3297 22.5959 12.1342 22.9909 13.0517C23.3857 13.9693 23.5832 14.9497 23.5832 15.9929C23.5832 17.0361 23.3858 18.0186 22.9911 18.9404C22.5964 19.8622 22.0532 20.669 21.3617 21.3609C20.6702 22.0527 19.8657 22.5961 18.9482 22.9911C18.0305 23.3859 17.0501 23.5834 16.0069 23.5834ZM15.9998 22.5C17.8054 22.5 19.3401 21.8681 20.604 20.6042C21.8679 19.3403 22.4998 17.8056 22.4998 16C22.4998 14.1945 21.8679 12.6597 20.604 11.3959C19.3401 10.132 17.8054 9.50002 15.9998 9.50002C14.1943 9.50002 12.6596 10.132 11.3957 11.3959C10.1318 12.6597 9.49984 14.1945 9.49984 16C9.49984 17.8056 10.1318 19.3403 11.3957 20.6042C12.6596 21.8681 14.1943 22.5 15.9998 22.5Z" fill="#491006"/>
</g>
</svg>
