<svg xmlns="http://www.w3.org/2000/svg" xmlns:xlink="http://www.w3.org/1999/xlink" version="1.1" width="352.328pt" height="192.466pt" viewBox="0 0 352.328 192.466">
<defs>
<clipPath id="clip_0">
<path transform="matrix(1,0,0,-1,-93.603,522.166)" d="M0 0H595.276V841.89H0Z"/>
</clipPath>
</defs>
<g clip-path="url(#clip_0)">
<text xml:space="preserve" transform="matrix(1 0 -0 1 -93.603 522.166)" font-size="11.9552" font-family="CMBX12" font-weight="bold"><tspan y="-504.276" x="108.862 119.39453 126.12531 131.62471 137.1241 143.25711 146.99909 153.53858 158.84668 162.95928 169.69005 177.16205 182.47016 189.00965 196.48165 203.02114 206.7631 213.8645 219.1726 225.30562 235.28821 240.52458 247.99658 255.83919 261.9722 268.5117 274.01109 285.22508 291.76457 299.23658">Korrelasjonsanalyser(Spearman)</tspan></text>
<path transform="matrix(1,0,0,-1,9.281006,24.459015)" stroke-width=".351" stroke-linecap="butt" stroke-miterlimit="10" stroke-linejoin="miter" fill="none" stroke="#000000" d="M0 0H329.709"/>
<text xml:space="preserve" transform="matrix(1 0 -0 1 -93.603 522.166)" font-size="11.9552" font-family="CMR12"><tspan y="-484.074" x="265.88 274.4997 280.35777 284.9127 294.0106 299.86866 305.06916 309.62409 314.2388 320.74244">Rateversus</tspan></text>
<path transform="matrix(1,0,0,-1,65.034,44.660005)" stroke-width=".351" stroke-linecap="butt" stroke-miterlimit="10" stroke-linejoin="miter" fill="none" stroke="#000000" d="M0 0H273.956"/>
<text xml:space="preserve" transform="matrix(1 0 -0 1 -93.603 522.166)" font-size="11.9552" font-family="CMR12"><tspan y="-463.872" x="166.502 175.27712 181.78075 188.28438 193.4849 218.97339 227.7485 234.25214 240.75577 245.95629 278.73747 287.51258 294.0162 300.51985 305.72035 345.14857 353.92369 360.4273 366.93095 372.13145 402.37809 410.99778 416.85585 421.41078">AndelAndelAndelAndelRate</tspan><tspan y="-449.427" x="165.77 173.73217 178.2871 181.53891 187.07416 192.92026 210.59004 219.20975 225.0678 231.24864 235.80358 241.66162 246.86214">PrivatR&#x00f8;ntgen</tspan></text>
<text xml:space="preserve" transform="matrix(1 0 -0 1 -93.603 522.166)" font-size="7.9701" font-family="CMSY8" font-style="italic"><tspan y="-453.765" x="253.339">&#x2020;</tspan></text>
<text xml:space="preserve" transform="matrix(1 0 -0 1 -93.603 522.166)" font-size="11.9552" font-family="CMR12"><tspan y="-449.427" x="269.556 277.84095 281.09275 284.34455 290.2026 294.75755 299.95805 304.51298 310.37104 313.62284 330.13298 337.77235 343.6304 349.81126 355.65736 360.85786 364.43247 370.29054 374.84547 378.09727 383.95533 402.90434 410.8665 417.37013">BilateraltPakkeforl&#x00f8;pPSA</tspan></text>
<path transform="matrix(1,0,0,-1,9.281006,79.42502)" stroke-width=".585" stroke-linecap="butt" stroke-miterlimit="10" stroke-linejoin="miter" fill="none" stroke="#000000" d="M0 0H329.709"/>
<text xml:space="preserve" transform="matrix(1 0 -0 1 -93.603 522.166)" font-size="11.9552" font-family="CMR12"><tspan y="-428.991" x="108.862 119.585819 164.62107 170.47911 173.73093 179.58898">MR0.62</tspan></text>
<text xml:space="preserve" transform="matrix(1 0 -0 1 -93.603 522.166)" font-size="7.9701" font-family="CMMI8" font-style="italic"><tspan y="-433.329" x="185.425 189.65712 193.88924">&#x22c6;&#x22c6;&#x22c6;</tspan></text>
<text xml:space="preserve" transform="matrix(1 0 -0 1 -93.603 522.166)" font-size="11.9552" font-family="CMR12"><tspan y="-414.545" x="108.862 117.31432 123.17237 129.676 136.17963 168.8532 174.71125 177.96306 183.8211">Caput0.54</tspan></text>
<text xml:space="preserve" transform="matrix(1 0 -0 1 -93.603 522.166)" font-size="7.9701" font-family="CMMI8" font-style="italic"><tspan y="-418.88304" x="189.66">&#x22c6;</tspan></text>
<text xml:space="preserve" transform="matrix(1 0 -0 1 -93.603 522.166)" font-size="11.9552" font-family="CMR12"><tspan y="-400.09904" x="108.86201 115.36564 121.54648 128.05011 131.30193 137.80556 143.00608 169.27165 173.16905 179.0271 182.27892 188.13697 221.74303 225.64043 231.49848 234.75029 240.60834 283.47969 289.33775 292.58955 298.4476">Skulder-0.09-0.300.11</tspan><tspan y="-385.653" x="108.86201 116.17859 117.63712 123.49517 129.9988 171.22034 177.07839 180.3302 186.18825 283.47969 289.33775 292.58955 298.4476">H&#x02da;and0.230.40</tspan><tspan y="-371.207" x="108.86201 116.82417 121.379108 127.23715 131.85186 136.40679 142.26483 146.81977 169.28359 173.18099 179.03903 182.29085 188.1489 347.95405 351.85145 357.7095 360.9613 366.81938 404.13157 409.98963 413.24143 419.0995">Prostata-0.17-0.140.24</tspan><tspan y="-356.762" x="108.86201 117.959918 124.46355 171.20839 177.06644 180.31826 186.1763 217.25983 221.15723 227.01528 230.26709 236.12514">Kne0.32-0.61</tspan></text>
<text xml:space="preserve" transform="matrix(1 0 -0 1 -93.603 522.166)" font-size="7.9701" font-family="CMMI8" font-style="italic"><tspan y="-361.1" x="241.96402 246.19614">&#x22c6;&#x22c6;</tspan></text>
<text xml:space="preserve" transform="matrix(1 0 -0 1 -93.603 522.166)" font-size="11.9552" font-family="CMR12"><tspan y="-356.762" x="281.08903 286.94709 290.19889 296.05696">0.46</tspan></text>
<text xml:space="preserve" transform="matrix(1 0 -0 1 -93.603 522.166)" font-size="7.9701" font-family="CMMI8" font-style="italic"><tspan y="-361.1" x="301.90003">&#x22c6;</tspan></text>
<path transform="matrix(1,0,0,-1,9.281006,172.09003)" stroke-width=".585" stroke-linecap="butt" stroke-miterlimit="10" stroke-linejoin="miter" fill="none" stroke="#000000" d="M0 0H329.709"/>
<text xml:space="preserve" transform="matrix(1 0 -0 1 -93.603 522.166)" font-size="7.9701" font-family="CMSY8" font-style="italic"><tspan y="-339.907" x="105.707">&#x2020;</tspan></text>
<text xml:space="preserve" transform="matrix(1 0 -0 1 -93.603 522.166)" font-size="7.9701" font-family="CMR8"><tspan y="-339.907" x="112.293 118.86833 123.570697 131.09447 133.68476 137.91687 144.0379 148.74027 152.97238 156.31186 158.66304 162.42493 166.89615 170.1878 173.94969 180.07073 184.30284 190.30432 191.35639 195.5885 201.70954 205.94165 212.99518 216.75707 219.10825 223.81061 227.11023 230.87212">Kunforpasienter50&#x02da;arogeldre.</tspan></text>
<text xml:space="preserve" transform="matrix(1 0 -0 1 -93.603 522.166)" font-size="7.9701" font-family="CMMI8" font-style="italic"><tspan y="-339.907" x="237.03299">&#x22c6;</tspan></text>
<text xml:space="preserve" transform="matrix(1 0 -0 1 -93.603 522.166)" font-size="7.9701" font-family="CMR8"><tspan y="-339.907" x="244.09">p</tspan></text>
<text xml:space="preserve" transform="matrix(1 0 -0 1 -93.603 522.166)" font-size="7.9701" font-family="CMMI8" font-style="italic"><tspan y="-339.907" x="251.61699">&#x003c;</tspan></text>
<text xml:space="preserve" transform="matrix(1 0 -0 1 -93.603 522.166)" font-size="7.9701" font-family="CMR8"><tspan y="-339.907" x="258.20399 262.4361 264.78727 269.01939 273.2515">0.05,</tspan></text>
<text xml:space="preserve" transform="matrix(1 0 -0 1 -93.603 522.166)" font-size="7.9701" font-family="CMMI8" font-style="italic"><tspan y="-339.907" x="278.434 282.6661">&#x22c6;&#x22c6;</tspan></text>
<text xml:space="preserve" transform="matrix(1 0 -0 1 -93.603 522.166)" font-size="7.9701" font-family="CMR8"><tspan y="-339.907" x="289.72499">p</tspan></text>
<text xml:space="preserve" transform="matrix(1 0 -0 1 -93.603 522.166)" font-size="7.9701" font-family="CMMI8" font-style="italic"><tspan y="-339.907" x="297.253">&#x003c;</tspan></text>
<text xml:space="preserve" transform="matrix(1 0 -0 1 -93.603 522.166)" font-size="7.9701" font-family="CMR8"><tspan y="-339.907" x="303.839 308.0711 310.42228 314.6544 318.8865">0.01,</tspan></text>
<text xml:space="preserve" transform="matrix(1 0 -0 1 -93.603 522.166)" font-size="7.9701" font-family="CMMI8" font-style="italic"><tspan y="-339.907" x="324.069 328.30113 332.53324">&#x22c6;&#x22c6;&#x22c6;</tspan></text>
<text xml:space="preserve" transform="matrix(1 0 -0 1 -93.603 522.166)" font-size="7.9701" font-family="CMR8"><tspan y="-339.907" x="339.594">p</tspan></text>
<text xml:space="preserve" transform="matrix(1 0 -0 1 -93.603 522.166)" font-size="7.9701" font-family="CMMI8" font-style="italic"><tspan y="-339.907" x="347.122">&#x003c;</tspan></text>
<text xml:space="preserve" transform="matrix(1 0 -0 1 -93.603 522.166)" font-size="7.9701" font-family="CMR8"><tspan y="-339.907" x="353.708 357.94013 360.2913 364.5234 368.75553 372.98765">0.001.</tspan></text>
</g>
</svg>
