<svg width="182" height="58" viewBox="0 0 182 58" fill="none" xmlns="http://www.w3.org/2000/svg">
<path d="M6.4936 36.216C5.6416 36.216 4.8676 36.054 4.1716 35.73C3.4756 35.406 2.8876 34.974 2.4076 34.434C1.9276 33.882 1.5856 33.276 1.3816 32.616L2.6776 32.13C2.9896 33.042 3.4756 33.738 4.1356 34.218C4.7956 34.686 5.5816 34.92 6.4936 34.92C7.0696 34.92 7.5736 34.83 8.0056 34.65C8.4496 34.458 8.7916 34.194 9.0316 33.858C9.2716 33.522 9.3916 33.132 9.3916 32.688C9.3916 32.028 9.2116 31.518 8.8516 31.158C8.4916 30.798 7.9756 30.522 7.3036 30.33L4.8916 29.61C3.9436 29.334 3.2116 28.872 2.6956 28.224C2.1916 27.576 1.9396 26.838 1.9396 26.01C1.9396 25.302 2.1136 24.678 2.4616 24.138C2.8096 23.586 3.2836 23.154 3.8836 22.842C4.4956 22.53 5.1856 22.374 5.9536 22.374C6.7576 22.374 7.4776 22.524 8.1136 22.824C8.7616 23.112 9.3076 23.496 9.7516 23.976C10.1956 24.456 10.5136 24.99 10.7056 25.578L9.4456 26.082C9.1576 25.29 8.7076 24.69 8.0956 24.282C7.4956 23.874 6.7876 23.67 5.9716 23.67C5.4556 23.67 4.9996 23.76 4.6036 23.94C4.2196 24.12 3.9196 24.378 3.7036 24.714C3.4876 25.05 3.3796 25.446 3.3796 25.902C3.3796 26.454 3.5536 26.952 3.9016 27.396C4.2496 27.828 4.7836 28.152 5.5036 28.368L7.6276 28.998C8.6836 29.31 9.4816 29.76 10.0216 30.348C10.5616 30.936 10.8316 31.674 10.8316 32.562C10.8316 33.282 10.6456 33.918 10.2736 34.47C9.9136 35.01 9.4036 35.436 8.7436 35.748C8.0956 36.06 7.3456 36.216 6.4936 36.216ZM14.0043 36L24.9843 22.59H26.8563L15.8763 36H14.0043ZM20.4303 36.216C19.4943 36.216 18.6183 36.048 17.8023 35.712C16.9983 35.364 16.2903 34.884 15.6783 34.272C15.0663 33.648 14.5863 32.916 14.2383 32.076C13.8903 31.224 13.7163 30.294 13.7163 29.286C13.7163 28.278 13.8903 27.354 14.2383 26.514C14.5863 25.662 15.0663 24.93 15.6783 24.318C16.2903 23.694 16.9983 23.214 17.8023 22.878C18.6183 22.542 19.4943 22.374 20.4303 22.374C21.3663 22.374 22.2363 22.548 23.0403 22.896C23.8563 23.232 24.5703 23.712 25.1823 24.336C25.7943 24.948 26.2743 25.674 26.6223 26.514C26.9703 27.354 27.1443 28.278 27.1443 29.286C27.1443 30.294 26.9703 31.224 26.6223 32.076C26.2743 32.916 25.7943 33.648 25.1823 34.272C24.5703 34.884 23.8563 35.364 23.0403 35.712C22.2363 36.048 21.3663 36.216 20.4303 36.216ZM20.4303 34.866C21.2103 34.866 21.9183 34.722 22.5543 34.434C23.2023 34.146 23.7603 33.744 24.2283 33.228C24.6963 32.712 25.0563 32.118 25.3083 31.446C25.5723 30.774 25.7043 30.054 25.7043 29.286C25.7043 28.53 25.5723 27.816 25.3083 27.144C25.0563 26.472 24.6963 25.878 24.2283 25.362C23.7603 24.846 23.2023 24.444 22.5543 24.156C21.9183 23.868 21.2103 23.724 20.4303 23.724C19.6503 23.724 18.9363 23.868 18.2883 24.156C17.6523 24.444 17.1003 24.846 16.6323 25.362C16.1643 25.878 15.7983 26.472 15.5343 27.144C15.2823 27.816 15.1563 28.53 15.1563 29.286C15.1563 30.054 15.2823 30.774 15.5343 31.446C15.7983 32.118 16.1643 32.712 16.6323 33.228C17.1003 33.744 17.6583 34.146 18.3063 34.434C18.9543 34.722 19.6623 34.866 20.4303 34.866ZM30.4151 36V22.59H31.8551V30.42L31.5311 30.258L38.2811 22.59H40.0811L34.6631 28.746L34.7351 27.72L40.4051 36H38.6771L34.1051 29.394L31.8551 31.95V36H30.4151Z" fill="#003087"/>
<path d="M58.5844 33.1077C62.3675 33.1077 65.4344 30.0409 65.4344 26.2577C65.4344 22.4746 62.3675 19.4077 58.5844 19.4077C54.8012 19.4077 51.7344 22.4746 51.7344 26.2577C51.7344 30.0409 54.8012 33.1077 58.5844 33.1077Z" stroke="#003087" stroke-width="1.3"/>
<path d="M63.7188 31.3789L70.7568 38.417" stroke="#003087" stroke-width="1.3"/>
<path d="M98.8252 36V22.59H100.085L105.125 29.898H104.423L109.445 22.59H110.705V36H109.265V24.534L109.733 24.714L104.801 31.86H104.729L99.8152 24.714L100.265 24.534V36H98.8252ZM114.372 36V22.59H123.012V23.94H115.812V28.602H122.652V29.952H115.812V34.65H123.012V36H114.372ZM125.894 36V22.59H127.154L135.02 33.876H134.534V22.59H135.974V36H134.714L126.848 24.642H127.334V36H125.894ZM142.959 36V29.772L138.261 22.59H139.863L143.967 28.836H143.391L147.477 22.59H149.079L144.399 29.772V36H142.959Z" fill="#003087"/>
<path d="M179.749 19.7578H159.749V20.9578H179.749V19.7578Z" fill="#003087"/>
<path d="M179.749 35.7578H159.749V36.9578H179.749V35.7578Z" fill="#003087"/>
<path d="M179.749 27.7578H159.749V28.9578H179.749V27.7578Z" fill="#003087"/>
</svg>
