<svg id="Layer_1" data-name="Layer 1" xmlns="http://www.w3.org/2000/svg" viewBox="0 0 297.78 59.64"><defs><style>.cls-1{fill:#ffffff;}</style></defs><title>Helseatlas</title><path class="cls-1" d="M79.38,49.85V15.49h4.55V29.6h17.86V15.49h4.55V49.85h-4.55V33.65H83.92v16.2Z"/><path class="cls-1" d="M130.4,41.83l4.36.54a10.64,10.64,0,0,1-3.82,5.93A12.94,12.94,0,0,1,115.15,47q-3.2-3.36-3.2-9.43,0-6.28,3.23-9.75a11,11,0,0,1,8.39-3.47,10.64,10.64,0,0,1,8.16,3.4q3.16,3.4,3.16,9.56,0,.38,0,1.13H116.32a9.56,9.56,0,0,0,2.32,6.28,6.91,6.91,0,0,0,5.2,2.18,6.46,6.46,0,0,0,4-1.22A8.09,8.09,0,0,0,130.4,41.83ZM116.55,35h13.9a8.43,8.43,0,0,0-1.59-4.71,6.47,6.47,0,0,0-5.23-2.44,6.7,6.7,0,0,0-4.89,1.95A7.7,7.7,0,0,0,116.55,35Z"/><path class="cls-1" d="M140,49.85V15.49h4.22V49.85Z"/><path class="cls-1" d="M149,42.42l4.17-.66a5.83,5.83,0,0,0,2,3.84,6.82,6.82,0,0,0,4.49,1.34A6.59,6.59,0,0,0,164,45.76,3.54,3.54,0,0,0,165.37,43a2.56,2.56,0,0,0-1.24-2.25,18.3,18.3,0,0,0-4.31-1.43,39.35,39.35,0,0,1-6.43-2,6.14,6.14,0,0,1-3.64-5.71,6.41,6.41,0,0,1,.76-3.08,6.83,6.83,0,0,1,2.07-2.36,8.7,8.7,0,0,1,2.68-1.23,12.76,12.76,0,0,1,3.64-.5,14.41,14.41,0,0,1,5.14.84,7,7,0,0,1,3.27,2.29,8.93,8.93,0,0,1,1.45,3.86l-4.12.56a4.51,4.51,0,0,0-1.63-3,6,6,0,0,0-3.81-1.08,6.9,6.9,0,0,0-4.15,1,2.8,2.8,0,0,0-1.24,2.25,2.33,2.33,0,0,0,.52,1.48,3.72,3.72,0,0,0,1.62,1.13q.63.23,3.73,1.08a51.88,51.88,0,0,1,6.25,2,6.34,6.34,0,0,1,2.78,2.21,6.18,6.18,0,0,1,1,3.61,7.08,7.08,0,0,1-1.23,4,8,8,0,0,1-3.55,2.88,12.92,12.92,0,0,1-5.25,1q-4.85,0-7.39-2A9.37,9.37,0,0,1,149,42.42Z"/><path class="cls-1" d="M191.76,41.83l4.36.54a10.64,10.64,0,0,1-3.82,5.93A12.94,12.94,0,0,1,176.51,47q-3.2-3.36-3.2-9.43,0-6.28,3.23-9.75a11,11,0,0,1,8.39-3.47,10.64,10.64,0,0,1,8.16,3.4q3.16,3.4,3.16,9.56,0,.38,0,1.13H177.67A9.56,9.56,0,0,0,180,44.76a6.91,6.91,0,0,0,5.2,2.18,6.46,6.46,0,0,0,4-1.22A8.09,8.09,0,0,0,191.76,41.83ZM177.91,35h13.9a8.43,8.43,0,0,0-1.59-4.71A6.47,6.47,0,0,0,185,27.86a6.7,6.7,0,0,0-4.89,1.95A7.7,7.7,0,0,0,177.91,35Z"/><path class="cls-1" d="M217.66,46.78a15.71,15.71,0,0,1-4.51,2.81,13,13,0,0,1-4.65.82,9,9,0,0,1-6.3-2,6.61,6.61,0,0,1-2.2-5.12,6.81,6.81,0,0,1,.83-3.34A6.89,6.89,0,0,1,203,37.52a10.25,10.25,0,0,1,3-1.38,30.15,30.15,0,0,1,3.75-.63,38.56,38.56,0,0,0,7.52-1.45q0-.87,0-1.1a4.66,4.66,0,0,0-1.2-3.63,7.06,7.06,0,0,0-4.8-1.43,7.45,7.45,0,0,0-4.39,1,6.37,6.37,0,0,0-2.1,3.69l-4.12-.56a10.22,10.22,0,0,1,1.85-4.28,8.12,8.12,0,0,1,3.73-2.51,16.62,16.62,0,0,1,5.65-.88,15,15,0,0,1,5.18.75A6.82,6.82,0,0,1,220,27a6.64,6.64,0,0,1,1.31,2.87,23.75,23.75,0,0,1,.21,3.89v5.63a59.7,59.7,0,0,0,.27,7.44,9.39,9.39,0,0,0,1.07,3H218.5A8.94,8.94,0,0,1,217.66,46.78Zm-.35-9.42A31,31,0,0,1,210.42,39a15.94,15.94,0,0,0-3.68.84,3.67,3.67,0,0,0-1.66,1.37,3.73,3.73,0,0,0,.69,4.82,5.5,5.5,0,0,0,3.74,1.13A8.7,8.7,0,0,0,213.84,46a6.57,6.57,0,0,0,2.79-2.92,10.19,10.19,0,0,0,.68-4.22Z"/><path class="cls-1" d="M237.32,46.08l.61,3.73a15.65,15.65,0,0,1-3.19.38,7.22,7.22,0,0,1-3.56-.73,4.07,4.07,0,0,1-1.78-1.91,15.1,15.1,0,0,1-.52-5V28.24h-3.09V25h3.09V18.79l4.2-2.53V25h4.24v3.28h-4.24V42.79a7.35,7.35,0,0,0,.22,2.32,1.76,1.76,0,0,0,.73.82,2.81,2.81,0,0,0,1.44.3A13.72,13.72,0,0,0,237.32,46.08Z"/><path class="cls-1" d="M241.35,49.85V15.49h4.22V49.85Z"/><path class="cls-1" d="M268.35,46.78a15.71,15.71,0,0,1-4.51,2.81,13,13,0,0,1-4.65.82,9,9,0,0,1-6.3-2,6.61,6.61,0,0,1-2.2-5.12,6.81,6.81,0,0,1,.83-3.34,6.89,6.89,0,0,1,2.18-2.43,10.25,10.25,0,0,1,3-1.38,30.15,30.15,0,0,1,3.75-.63A38.56,38.56,0,0,0,268,34.05q0-.87,0-1.1a4.66,4.66,0,0,0-1.2-3.63,7.06,7.06,0,0,0-4.8-1.43,7.45,7.45,0,0,0-4.39,1,6.37,6.37,0,0,0-2.1,3.69l-4.12-.56a10.22,10.22,0,0,1,1.85-4.28A8.12,8.12,0,0,1,257,25.27a16.62,16.62,0,0,1,5.65-.88,15,15,0,0,1,5.18.75A6.82,6.82,0,0,1,270.74,27a6.64,6.64,0,0,1,1.31,2.87,23.75,23.75,0,0,1,.21,3.89v5.63a59.7,59.7,0,0,0,.27,7.44,9.39,9.39,0,0,0,1.07,3H269.2A8.94,8.94,0,0,1,268.35,46.78ZM268,37.36A31,31,0,0,1,261.11,39a15.94,15.94,0,0,0-3.68.84,3.67,3.67,0,0,0-1.66,1.37,3.73,3.73,0,0,0,.69,4.82,5.5,5.5,0,0,0,3.74,1.13A8.7,8.7,0,0,0,264.53,46a6.57,6.57,0,0,0,2.79-2.92A10.19,10.19,0,0,0,268,38.9Z"/><path class="cls-1" d="M277.12,42.42l4.17-.66a5.83,5.83,0,0,0,2,3.84,6.82,6.82,0,0,0,4.49,1.34A6.59,6.59,0,0,0,292,45.76,3.54,3.54,0,0,0,293.46,43a2.56,2.56,0,0,0-1.24-2.25,18.3,18.3,0,0,0-4.31-1.43,39.35,39.35,0,0,1-6.43-2,6.14,6.14,0,0,1-3.64-5.71,6.41,6.41,0,0,1,.76-3.08,6.83,6.83,0,0,1,2.07-2.36,8.7,8.7,0,0,1,2.68-1.23,12.76,12.76,0,0,1,3.64-.5,14.41,14.41,0,0,1,5.14.84,7,7,0,0,1,3.27,2.29,8.93,8.93,0,0,1,1.45,3.86l-4.12.56a4.51,4.51,0,0,0-1.63-3,6,6,0,0,0-3.81-1.08,6.9,6.9,0,0,0-4.15,1,2.8,2.8,0,0,0-1.24,2.25,2.33,2.33,0,0,0,.52,1.48A3.72,3.72,0,0,0,284,33.68q.63.23,3.73,1.08a51.88,51.88,0,0,1,6.25,2,6.34,6.34,0,0,1,2.78,2.21,6.18,6.18,0,0,1,1,3.61,7.08,7.08,0,0,1-1.23,4A8,8,0,0,1,293,49.39a12.92,12.92,0,0,1-5.25,1q-4.85,0-7.39-2A9.37,9.37,0,0,1,277.12,42.42Z"/><path class="cls-1" d="M29,14.9a7.3,7.3,0,0,0,7.24-7.36,7.24,7.24,0,1,0-14.48,0A7.3,7.3,0,0,0,29,14.9Z"/><path class="cls-1" d="M51,37.39A7.36,7.36,0,1,0,43.79,30,7.3,7.3,0,0,0,51,37.39Z"/><path class="cls-1" d="M29,59.64a7.36,7.36,0,1,0-7.24-7.36A7.3,7.3,0,0,0,29,59.64Z"/><path class="cls-1" d="M7,37.39A7.36,7.36,0,0,0,7,22.68,7.36,7.36,0,0,0,7,37.39Z"/><path class="cls-1" d="M29,37.39A7.36,7.36,0,1,0,21.77,30,7.3,7.3,0,0,0,29,37.39Z"/></svg>
