<?xml version="1.0" encoding="UTF-8" standalone="no"?>
<!-- Created with Inkscape (http://www.inkscape.org/) -->

<svg
   version="1.1"
   id="svg2"
   xml:space="preserve"
   width="156.49199"
   height="36.497868"
   viewBox="0 0 156.49199 36.497868"
   xmlns="http://www.w3.org/2000/svg"
   xmlns:svg="http://www.w3.org/2000/svg"><defs
     id="defs6" /><g
     id="g8"
     transform="matrix(1.3333333,0,0,-1.3333333,0,36.497866)"><g
       id="g10"
       transform="scale(0.1)"><path
         d="m 621.918,239.977 c 0,-18.653 -15.141,-33.77 -33.789,-33.77 -18.629,0 -33.75,15.117 -33.75,33.77 0,18.648 15.121,33.757 33.75,33.757 18.648,0 33.789,-15.109 33.789,-33.757"
         style="fill:#FFFFFF;fill-opacity:1;fill-rule:nonzero;stroke:none"
         id="path12" /><path
         d="m 621.918,136.965 c 0,-18.641 -15.141,-33.762 -33.789,-33.762 -18.629,0 -33.75,15.121 -33.75,33.762 0,18.648 15.121,33.777 33.75,33.777 18.648,0 33.789,-15.129 33.789,-33.777"
         style="fill:#68aee0;fill-opacity:1;fill-rule:nonzero;stroke:none"
         id="path14" /><path
         d="m 518.809,136.965 c 0,-18.641 -15.11,-33.762 -33.77,-33.762 -18.641,0 -33.758,15.121 -33.758,33.762 0,18.648 15.117,33.777 33.758,33.777 18.66,0 33.77,-15.129 33.77,-33.777"
         style="fill:#68aee0;fill-opacity:1;fill-rule:nonzero;stroke:none"
         id="path16" /><path
         d="m 725.07,136.965 c 0,-18.641 -15.097,-33.762 -33.757,-33.762 -18.641,0 -33.762,15.121 -33.762,33.762 0,18.648 15.121,33.777 33.762,33.777 18.66,0 33.757,-15.129 33.757,-33.777"
         style="fill:#68aee0;fill-opacity:1;fill-rule:nonzero;stroke:none"
         id="path18" /><path
         d="M 621.918,33.7617 C 621.918,15.1211 606.777,0 588.129,0 c -18.629,0 -33.75,15.1211 -33.75,33.7617 0,18.6602 15.121,33.7891 33.75,33.7891 18.648,0 33.789,-15.1289 33.789,-33.7891"
         style="fill:#68aee0;fill-opacity:1;fill-rule:nonzero;stroke:none"
         id="path20" /><path
         d="M 65.1484,91.4844 V 133.258 H 11.3398 V 91.4844 H 0 v 91.2816 h 11.3398 v -39.141 h 53.8086 v 39.141 H 76.4883 V 91.4844 H 65.1484"
         style="fill:#FAFDFF;fill-opacity:1;fill-rule:nonzero;stroke:none"
         id="path22" /><path
         d="m 108.305,91.4844 v 91.2816 h 51.308 v -9.539 h -39.968 v -30.43 h 33.058 v -9.539 h -33.058 v -32.231 h 41.218 v -9.5426 h -52.558"
         style="fill:#FAFDFF;fill-opacity:1;fill-rule:nonzero;stroke:none"
         id="path24" /><path
         d="m 184.516,91.4844 v 91.2816 h 11.339 v -81.739 h 40.801 v -9.5426 h -52.14"
         style="fill:#FAFDFF;fill-opacity:1;fill-rule:nonzero;stroke:none"
         id="path26" /><path
         d="m 300.699,167.277 c -4.703,2.762 -6.64,3.731 -9.543,4.7 -3.457,1.113 -8.988,1.941 -12.59,1.941 -10.367,0 -17.429,-5.121 -17.429,-12.859 0,-6.782 4.011,-10.243 22.551,-20.063 6.218,-3.316 11.058,-6.359 14.378,-9.269 4.43,-3.731 7.063,-9.957 7.063,-16.598 0,-15.6212 -11.621,-25.4493 -30.02,-25.4493 -6.222,0 -12.031,1.1094 -16.871,3.0469 -3.461,1.3828 -5.808,2.7695 -11.761,6.7812 l 5.812,8.9882 c 5.117,-3.469 7.328,-4.707 10.508,-5.957 4.012,-1.519 8.441,-2.34 13.141,-2.34 10.789,0 17.289,5.11 17.289,13.828 0,2.621 -0.411,4.84 -1.379,6.5 -1.52,2.762 -4.149,5.391 -7.75,7.469 -1.52,0.832 -6.641,3.453 -15.211,8.16 -13.688,7.332 -19.5,14.524 -19.5,23.934 0,14.519 12.031,24.199 30.152,24.199 5.25,0 10.649,-0.691 15.348,-2.211 3.742,-1.238 5.953,-2.351 11.062,-5.39 l -5.25,-9.411"
         style="fill:#FAFDFF;fill-opacity:1;fill-rule:nonzero;stroke:none"
         id="path28" /><path
         d="m 330.156,91.4844 v 91.2816 h 51.313 v -9.539 h -39.973 v -30.43 h 33.063 v -9.539 h -33.063 v -32.231 h 41.223 v -9.5426 h -52.563"
         style="fill:#FAFDFF;fill-opacity:1;fill-rule:nonzero;stroke:none"
         id="path30" /><path
         d="M 65.1484,91.4844 V 133.258 H 11.3398 V 91.4844 H 0 v 91.2816 h 11.3398 v -39.141 h 53.8086 v 39.141 H 76.4883 V 91.4844 H 65.1484"
         style="fill:#FAFDFF;fill-opacity:1;fill-rule:nonzero;stroke:none"
         id="path32" /><path
         d="m 108.305,91.4844 v 91.2816 h 51.308 v -9.539 h -39.968 v -30.43 h 33.058 v -9.539 h -33.058 v -32.231 h 41.218 v -9.5426 h -52.558"
         style="fill:#FAFDFF;fill-opacity:1;fill-rule:nonzero;stroke:none"
         id="path34" /><path
         d="m 184.516,91.4844 v 91.2816 h 11.339 v -81.739 h 40.801 v -9.5426 h -52.14"
         style="fill:#FAFDFF;fill-opacity:1;fill-rule:nonzero;stroke:none"
         id="path36" /><path
         d="m 300.699,167.277 c -4.703,2.762 -6.64,3.731 -9.543,4.7 -3.457,1.113 -8.988,1.941 -12.59,1.941 -10.367,0 -17.429,-5.121 -17.429,-12.859 0,-6.782 4.011,-10.243 22.551,-20.063 6.218,-3.316 11.058,-6.359 14.378,-9.269 4.43,-3.731 7.063,-9.957 7.063,-16.598 0,-15.6212 -11.621,-25.4493 -30.02,-25.4493 -6.222,0 -12.031,1.1094 -16.871,3.0469 -3.461,1.3828 -5.808,2.7695 -11.761,6.7812 l 5.812,8.9882 c 5.117,-3.469 7.328,-4.707 10.508,-5.957 4.012,-1.519 8.441,-2.34 13.141,-2.34 10.789,0 17.289,5.11 17.289,13.828 0,2.621 -0.411,4.84 -1.379,6.5 -1.52,2.762 -4.149,5.391 -7.75,7.469 -1.52,0.832 -6.641,3.453 -15.211,8.16 -13.688,7.332 -19.5,14.524 -19.5,23.934 0,14.519 12.031,24.199 30.152,24.199 5.25,0 10.649,-0.691 15.348,-2.211 3.742,-1.238 5.953,-2.351 11.062,-5.39 l -5.25,-9.411"
         style="fill:#FAFDFF;fill-opacity:1;fill-rule:nonzero;stroke:none"
         id="path38" /><path
         d="m 330.156,91.4844 v 91.2816 h 51.313 v -9.539 h -39.973 v -30.43 h 33.063 v -9.539 h -33.063 v -32.231 h 41.223 v -9.5426 h -52.563"
         style="fill:#FAFDFF;fill-opacity:1;fill-rule:nonzero;stroke:none"
         id="path40" /><path
         d="m 856.676,90.6484 -39.141,59.0626 c -0.277,0.418 -0.969,1.656 -1.949,3.598 -0.68,1.101 -0.957,1.8 -1.09,1.941 -0.558,1.098 -0.828,1.66 -1.25,3.18 V 91.4883 h -16.59 V 182.77 h 20.039 l 38.332,-60.032 c 0.129,-0.269 0.539,-0.968 0.961,-1.929 0.418,-0.969 0.688,-1.532 0.828,-1.801 l 0.832,-2.36 0.84,-1.648 v 67.77 h 16.45 V 90.6484 h -18.262"
         style="fill:#FAFDFF;fill-opacity:1;fill-rule:nonzero;stroke:none"
         id="path42" /><path
         d="m 942.574,89.6758 c -28.5,0 -48.41,19.6482 -48.551,47.4492 0,28.219 19.641,47.301 48.551,47.301 28.77,0 48.41,-19.082 48.41,-47.301 0,-27.801 -20.058,-47.4492 -48.41,-47.4492 m 0,79.6792 c -17.289,0 -30.019,-13.839 -30.019,-32.23 0,-18.539 12.73,-32.23 30.019,-32.23 17.153,0 29.879,13.691 29.879,32.23 0,18.391 -12.726,32.23 -29.879,32.23"
         style="fill:#FAFDFF;fill-opacity:1;fill-rule:nonzero;stroke:none"
         id="path44" /><path
         d="m 1056.13,91.4844 -20.88,36.5116 h -8.72 V 91.4844 h -17.42 v 91.2816 h 30.42 c 13.27,0 19.36,-1.649 24.76,-6.77 4.98,-4.57 7.47,-11.211 7.47,-19.781 0,-7.059 -1.67,-12.731 -4.98,-17.149 -3.46,-4.429 -6.64,-6.371 -14.25,-8.441 l 22.68,-39.1406 z m -18.26,76.4806 h -11.34 v -25.168 h 11.34 c 11.06,0 15.9,3.879 15.9,13 0,8.711 -4.56,12.168 -15.9,12.168"
         style="fill:#FAFDFF;fill-opacity:1;fill-rule:nonzero;stroke:none"
         id="path46" /><path
         d="m 1161.11,104.895 c -8.45,-8.9887 -20.48,-13.4106 -36.93,-13.4106 h -33.76 v 91.2816 h 33.9 c 17.29,0 28.07,-3.871 37.06,-13.411 7.88,-8.441 12.31,-20.058 12.31,-31.949 0,-12.172 -4.56,-23.929 -12.58,-32.511 m -16.74,57.128 c -4.84,3.59 -11.89,5.391 -21.86,5.391 h -13.83 v -60.57 h 13.83 c 20.75,0 32.37,10.91 32.37,30.422 0,10.371 -4.01,19.918 -10.51,24.757"
         style="fill:#FAFDFF;fill-opacity:1;fill-rule:nonzero;stroke:none"
         id="path48" /><path
         d="m 856.676,90.6484 -39.141,59.0626 c -0.277,0.418 -0.969,1.656 -1.949,3.598 -0.68,1.101 -0.957,1.8 -1.09,1.941 -0.558,1.098 -0.828,1.66 -1.25,3.18 V 91.4883 h -16.59 V 182.77 h 20.039 l 38.332,-60.032 c 0.129,-0.269 0.539,-0.968 0.961,-1.929 0.418,-0.969 0.688,-1.532 0.828,-1.801 l 0.832,-2.36 0.84,-1.648 v 67.77 h 16.45 V 90.6484 h -18.262"
         style="fill:#FAFDFF;fill-opacity:1;fill-rule:nonzero;stroke:none"
         id="path50" /><path
         d="m 942.574,89.6758 c -28.5,0 -48.41,19.6482 -48.551,47.4492 0,28.219 19.641,47.301 48.551,47.301 28.77,0 48.41,-19.082 48.41,-47.301 0,-27.801 -20.058,-47.4492 -48.41,-47.4492 m 0,79.6792 c -17.289,0 -30.019,-13.839 -30.019,-32.23 0,-18.539 12.73,-32.23 30.019,-32.23 17.153,0 29.879,13.691 29.879,32.23 0,18.391 -12.726,32.23 -29.879,32.23"
         style="fill:#FAFDFF;fill-opacity:1;fill-rule:nonzero;stroke:none"
         id="path52" /><path
         d="m 1056.13,91.4844 -20.88,36.5116 h -8.72 V 91.4844 h -17.42 v 91.2816 h 30.42 c 13.27,0 19.36,-1.649 24.76,-6.77 4.98,-4.57 7.47,-11.211 7.47,-19.781 0,-7.059 -1.67,-12.731 -4.98,-17.149 -3.46,-4.429 -6.64,-6.371 -14.25,-8.441 l 22.68,-39.1406 z m -18.26,76.4806 h -11.34 v -25.168 h 11.34 c 11.06,0 15.9,3.879 15.9,13 0,8.711 -4.56,12.168 -15.9,12.168"
         style="fill:#FAFDFF;fill-opacity:1;fill-rule:nonzero;stroke:none"
         id="path54" /><path
         d="m 1161.11,104.895 c -8.45,-8.9887 -20.48,-13.4106 -36.93,-13.4106 h -33.76 v 91.2816 h 33.9 c 17.29,0 28.07,-3.871 37.06,-13.411 7.88,-8.441 12.31,-20.058 12.31,-31.949 0,-12.172 -4.56,-23.929 -12.58,-32.511 m -16.74,57.128 c -4.84,3.59 -11.89,5.391 -21.86,5.391 h -13.83 v -60.57 h 13.83 c 20.75,0 32.37,10.91 32.37,30.422 0,10.371 -4.01,19.918 -10.51,24.757"
         style="fill:#FAFDFF;fill-opacity:1;fill-rule:nonzero;stroke:none"
         id="path56" /></g></g></svg>
