<svg width="186" height="47" viewBox="0 0 186 47" fill="none" xmlns="http://www.w3.org/2000/svg">
<g clip-path="url(#clip0_8_124)">
<path d="M29.1862 5.79606C29.1872 6.94363 28.8492 8.06573 28.2148 9.02039C27.5805 9.97505 26.6784 10.7194 25.6226 11.1593C24.5668 11.5991 23.4048 11.7147 22.2836 11.4915C21.1624 11.2682 20.1323 10.7161 19.3236 9.90498C18.515 9.09388 17.9642 8.06023 17.7408 6.93477C17.5174 5.80932 17.6316 4.64264 18.0688 3.58233C18.506 2.52201 19.2466 1.61569 20.197 0.978027C21.1473 0.340363 22.2647 2.68027e-06 23.4078 2.23799e-06C24.1664 -0.000666987 24.9177 0.148759 25.6187 0.439738C26.3198 0.730718 26.9568 1.15755 27.4935 1.69583C28.0301 2.23411 28.4558 2.87328 28.7463 3.57683C29.0367 4.28037 29.1862 5.03448 29.1862 5.79606Z" fill="#033F85"/>
<path d="M29.1862 23.4847C29.1862 24.6321 28.8473 25.7537 28.2124 26.7077C27.5774 27.6617 26.675 28.4052 25.6191 28.8443C24.5632 29.2834 23.4014 29.3983 22.2805 29.1744C21.1596 28.9506 20.13 28.3981 19.3219 27.5868C18.5137 26.7755 17.9634 25.7418 17.7404 24.6165C17.5175 23.4912 17.6319 22.3248 18.0693 21.2647C18.5066 20.2047 19.2472 19.2987 20.1975 18.6613C21.1478 18.0238 22.2649 17.6836 23.4078 17.6836C24.9403 17.6836 26.4101 18.2948 27.4938 19.3827C28.5774 20.4706 29.1862 21.9462 29.1862 23.4847Z" fill="#033F85"/>
<path d="M11.5568 23.4847C11.5568 24.6321 11.2179 25.7537 10.583 26.7077C9.94805 27.6617 9.04559 28.4052 7.98972 28.8443C6.93385 29.2834 5.77201 29.3983 4.6511 29.1744C3.5302 28.9506 2.50059 28.3981 1.69246 27.5868C0.884335 26.7755 0.333995 25.7418 0.111033 24.6165C-0.111928 23.4912 0.00250378 22.3248 0.439858 21.2647C0.877213 20.2047 1.61785 19.2987 2.5681 18.6613C3.51836 18.0238 4.63555 17.6836 5.77842 17.6836C6.53744 17.6829 7.28914 17.8325 7.99051 18.1238C8.69188 18.4151 9.32915 18.8424 9.86586 19.3812C10.4026 19.92 10.8282 20.5598 11.1183 21.2639C11.4085 21.9681 11.5575 22.7227 11.5568 23.4847Z" fill="#033F85"/>
<path d="M46.831 23.4847C46.831 24.6321 46.4921 25.7537 45.8572 26.7077C45.2222 27.6617 44.3198 28.4052 43.2639 28.8443C42.208 29.2834 41.0462 29.3983 39.9253 29.1744C38.8044 28.9506 37.7748 28.3981 36.9666 27.5868C36.1585 26.7755 35.6082 25.7418 35.3852 24.6165C35.1622 23.4912 35.2767 22.3248 35.714 21.2647C36.1514 20.2047 36.892 19.2987 37.8423 18.6613C38.7925 18.0238 39.9097 17.6836 41.0526 17.6836C41.8114 17.6836 42.5628 17.8336 43.2639 18.1252C43.965 18.4167 44.602 18.844 45.1385 19.3827C45.6751 19.9214 46.1008 20.5609 46.3911 21.2647C46.6815 21.9686 46.831 22.7229 46.831 23.4847Z" fill="#033F85"/>
<path d="M29.1862 41.1937C29.1882 42.3415 28.851 43.4641 28.2173 44.4194C27.5836 45.3748 26.6818 46.1199 25.6261 46.5606C24.5705 47.0012 23.4083 47.1175 22.2867 46.8948C21.1652 46.6722 20.1346 46.1205 19.3254 45.3096C18.5163 44.4987 17.965 43.465 17.7412 42.3394C17.5174 41.2138 17.6312 40.0469 18.0683 38.9863C18.5053 37.9257 19.246 37.019 20.1964 36.3812C21.1469 35.7433 22.2645 35.4028 23.4078 35.4028C24.9386 35.4028 26.4068 36.0126 27.4902 37.0983C28.5735 38.184 29.1835 39.6569 29.1862 41.1937Z" fill="#033F85"/>
<path d="M70.1781 31.2467V24.6256H62.2893V31.2467H59.3569V15.7991H62.2893V21.9771H70.1934V15.7991H73.1308V31.2467H70.1781Z" fill="#033F85"/>
<path d="M77.0371 31.2467V15.7991H86.4074V18.3049H79.9745V22.1197H85.2405V24.6205H79.9745V28.7409H86.7118V31.2467H77.0371Z" fill="#033F85"/>
<path d="M89.5984 31.2467V15.7991H92.5307V28.7409H98.8165V31.2467H89.5984Z" fill="#033F85"/>
<path d="M109.638 19.4764C108.396 18.8471 107.042 18.473 105.655 18.3762C104.275 18.3762 103.392 18.9365 103.392 19.8023C103.392 20.4593 103.768 20.8566 104.859 21.4423C107.218 22.7054 108.755 23.6884 109.475 24.4117C110.168 25.1609 110.544 26.1503 110.525 27.1722C110.525 29.9327 108.496 31.5523 105.117 31.5523C104.657 31.5565 104.198 31.5241 103.743 31.4556C102.647 31.3129 102.134 31.1296 100.526 30.3809L99.5115 29.9123L100.749 27.1976C101.454 27.6069 102.186 27.9661 102.941 28.2723C103.649 28.5401 104.396 28.6915 105.153 28.7205C106.507 28.7205 107.39 28.1093 107.39 27.1925C107.39 26.5406 107.04 26.0924 106.041 25.5322L103.661 24.1774C100.937 22.6087 100.11 21.5798 100.11 19.894C100.111 19.1331 100.321 18.3873 100.719 17.7396C101.023 17.282 101.41 16.8863 101.86 16.5732C102.976 15.7991 103.935 15.5546 105.731 15.5546C106.708 15.544 107.68 15.6779 108.618 15.9519C109.373 16.1848 110.106 16.483 110.81 16.8432L109.638 19.4764Z" fill="#033F85"/>
<path d="M113.574 31.2467V15.7991H122.945V18.3049H116.512V22.1197H121.778V24.6205H116.512V28.7409H123.249V31.2467H113.574Z" fill="#033F85"/>
<path d="M134.781 31.2467L133.568 27.4421H128.419L127.161 31.2569H124.086L129.667 15.8093H132.3L137.88 31.2569L134.781 31.2467ZM130.981 19.3338L129.21 24.9363H132.761L130.981 19.3338Z" fill="#033F85"/>
<path d="M144.009 18.3049V31.2467H141.071V18.3049H136.455V15.7991H148.631V18.3049H144.009Z" fill="#033F85"/>
<path d="M150.929 31.2467V15.7991H153.866V28.7409H160.162V31.2467H150.929Z" fill="#033F85"/>
<path d="M171.11 31.2467L169.898 27.4421H164.769L163.51 31.2569H160.431L166.011 15.8093H168.65L174.23 31.2569L171.11 31.2467ZM167.305 19.3338L165.535 24.9363H169.086L167.305 19.3338Z" fill="#033F85"/>
<path d="M184.833 19.4764C183.592 18.8471 182.238 18.473 180.851 18.3762C179.476 18.3762 178.588 18.9365 178.588 19.8023C178.588 20.4594 178.963 20.8566 180.059 21.4423C182.413 22.7055 183.95 23.6884 184.671 24.4117C185.363 25.1609 185.74 26.1503 185.721 27.1722C185.721 29.9327 183.717 31.5523 180.313 31.5523C179.853 31.5565 179.393 31.5241 178.938 31.4556C177.842 31.313 177.33 31.1296 175.722 30.3809L174.707 29.9123L175.945 27.1977C176.649 27.607 177.382 27.9661 178.137 28.2723C178.845 28.5397 179.592 28.691 180.348 28.7205C181.703 28.7205 182.586 28.1093 182.586 27.1926C182.586 26.5406 182.241 26.0924 181.236 25.5322L178.857 24.1774C176.133 22.6087 175.306 21.5799 175.306 19.894C175.306 19.1331 175.517 18.3873 175.914 17.7396C176.222 17.2906 176.609 16.9021 177.056 16.5936C178.177 15.8195 179.131 15.575 180.927 15.575C181.903 15.5644 182.876 15.6983 183.813 15.9723C184.568 16.2052 185.302 16.5034 186.005 16.8636L184.833 19.4764Z" fill="#033F85"/>
</g>
<defs>
<clipPath id="clip0_8_124">
<rect width="186" height="47" fill="white"/>
</clipPath>
</defs>
</svg>
