<?xml version="1.0" encoding="UTF-8" standalone="no"?>
<svg
   viewBox="0 0 223.26 45.339599"
   height="45.3396"
   width="223.25999"
   xml:space="preserve"
   id="svg2"
   version="1.1"
   xmlns="http://www.w3.org/2000/svg"
   xmlns:svg="http://www.w3.org/2000/svg"
   xmlns:rdf="http://www.w3.org/1999/02/22-rdf-syntax-ns#"
   xmlns:cc="http://creativecommons.org/ns#"
   xmlns:dc="http://purl.org/dc/elements/1.1/"><metadata
     id="metadata8"><rdf:RDF><cc:Work
         rdf:about=""><dc:format>image/svg+xml</dc:format><dc:type
           rdf:resource="http://purl.org/dc/dcmitype/StillImage" /></cc:Work></rdf:RDF></metadata><defs
     id="defs6"><clipPath
       id="clipPath18"
       clipPathUnits="userSpaceOnUse"><path
         id="path16"
         d="M 0,841.89 H 595.28 V 0 H 0 Z" /></clipPath></defs><g
     transform="matrix(1.3333333,0,0,-1.3333333,-142.67786,705.10892)"
     id="g10"><g
       id="g12"><g
         clip-path="url(#clipPath18)"
         id="g14"><g
           transform="translate(128.207,524.6377)"
           id="g20"><path
             id="path22"
             style="fill:#7db3e2;fill-opacity:1;fill-rule:nonzero;stroke:none"
             d="m 0,0 c 0,-2.318 -1.878,-4.195 -4.196,-4.195 -2.317,0 -4.193,1.877 -4.193,4.195 0,2.316 1.876,4.194 4.193,4.194 C -1.878,4.194 0,2.316 0,0" /></g><g
           transform="translate(128.207,511.8398)"
           id="g24"><path
             id="path26"
             style="fill:#7db3e2;fill-opacity:1;fill-rule:nonzero;stroke:none"
             d="m 0,0 c 0,-2.314 -1.878,-4.192 -4.196,-4.192 -2.317,0 -4.193,1.878 -4.193,4.192 0,2.318 1.876,4.197 4.193,4.197 C -1.878,4.197 0,2.318 0,0" /></g><g
           transform="translate(115.3984,511.8398)"
           id="g28"><path
             id="path30"
             style="fill:#065095;fill-opacity:1;fill-rule:nonzero;stroke:none"
             d="m 0,0 c 0,-2.314 -1.877,-4.192 -4.195,-4.192 -2.316,0 -4.195,1.878 -4.195,4.192 0,2.318 1.879,4.197 4.195,4.197 C -1.877,4.197 0,2.318 0,0" /></g><g
           transform="translate(141.0244,511.8398)"
           id="g32"><path
             id="path34"
             style="fill:#7db3e2;fill-opacity:1;fill-rule:nonzero;stroke:none"
             d="m 0,0 c 0,-2.314 -1.879,-4.192 -4.195,-4.192 -2.317,0 -4.195,1.878 -4.195,4.192 0,2.318 1.878,4.197 4.195,4.197 C -1.879,4.197 0,2.318 0,0" /></g><g
           transform="translate(128.207,499.019)"
           id="g36"><path
             id="path38"
             style="fill:#7db3e2;fill-opacity:1;fill-rule:nonzero;stroke:none"
             d="m 0,0 c 0,-2.316 -1.878,-4.192 -4.196,-4.192 -2.317,0 -4.193,1.876 -4.193,4.192 0,2.316 1.876,4.198 4.193,4.198 C -1.878,4.198 0,2.316 0,0" /></g><g
           transform="translate(161.7944,507.6372)"
           id="g40"><path
             id="path42"
             style="fill:#065095;fill-opacity:1;fill-rule:nonzero;stroke:none"
             d="M 0,0 V 6.042 H -7.782 V 0 h -1.64 v 13.203 h 1.64 V 7.542 H 0 v 5.661 H 1.64 V 0 Z" /></g><g
           transform="translate(167.7925,507.6372)"
           id="g44"><path
             id="path46"
             style="fill:#065095;fill-opacity:1;fill-rule:nonzero;stroke:none"
             d="m 0,0 v 13.203 h 7.421 v -1.38 H 1.64 V 7.421 H 6.421 V 6.042 H 1.64 V 1.38 H 7.602 V 0 Z" /></g><g
           transform="translate(178.5723,507.6372)"
           id="g48"><path
             id="path50"
             style="fill:#065095;fill-opacity:1;fill-rule:nonzero;stroke:none"
             d="M 0,0 V 13.203 H 1.64 V 1.38 H 7.542 V 0 Z" /></g><g
           transform="translate(195.1333,518.5996)"
           id="g52"><path
             id="path54"
             style="fill:#065095;fill-opacity:1;fill-rule:nonzero;stroke:none"
             d="m 0,0 c -0.68,0.4 -0.96,0.54 -1.38,0.68 -0.5,0.16 -1.301,0.28 -1.821,0.28 -1.5,0 -2.52,-0.74 -2.52,-1.86 0,-0.98 0.58,-1.48 3.261,-2.901 0.9,-0.48 1.6,-0.92 2.08,-1.34 0.64,-0.54 1.02,-1.441 1.02,-2.401 0,-2.26 -1.68,-3.681 -4.341,-3.681 -0.9,0 -1.74,0.16 -2.44,0.441 -0.5,0.199 -0.84,0.4 -1.701,0.98 l 0.841,1.3 c 0.74,-0.5 1.06,-0.68 1.52,-0.86 0.58,-0.22 1.22,-0.34 1.9,-0.34 1.56,0 2.501,0.74 2.501,2 0,0.38 -0.06,0.701 -0.2,0.94 -0.22,0.401 -0.6,0.781 -1.12,1.081 -0.221,0.12 -0.961,0.5 -2.201,1.18 -1.981,1.06 -2.82,2.101 -2.82,3.461 0,2.1 1.74,3.5 4.36,3.5 0.761,0 1.541,-0.1 2.221,-0.319 C -0.3,1.96 0.02,1.8 0.76,1.36 Z" /></g><g
           transform="translate(199.1519,507.6372)"
           id="g56"><path
             id="path58"
             style="fill:#065095;fill-opacity:1;fill-rule:nonzero;stroke:none"
             d="m 0,0 v 13.203 h 7.421 v -1.38 H 1.64 V 7.421 H 6.421 V 6.042 H 1.64 V 1.38 H 7.602 V 0 Z" /></g><g
           transform="translate(217.0718,518.6997)"
           id="g60"><path
             id="path62"
             style="fill:#065095;fill-opacity:1;fill-rule:nonzero;stroke:none"
             d="m 0,0 v -3.401 h 4.641 v -2.12 H 0 v -5.542 H -2.521 V 2.14 H 5.661 V 0 Z" /></g><g
           transform="translate(234.5332,516.7393)"
           id="g64"><path
             id="path66"
             style="fill:#065095;fill-opacity:1;fill-rule:nonzero;stroke:none"
             d="m 0,0 -6.401,-6.202 c 0.82,-0.699 1.74,-1.06 2.74,-1.06 2.421,0 4.281,2.041 4.281,4.741 C 0.62,-1.48 0.46,-0.82 0,0 m -3.741,2.26 c -2.46,0 -4.301,-2.02 -4.301,-4.72 0,-1.061 0.201,-1.841 0.641,-2.561 L -1,1.16 c -0.9,0.78 -1.701,1.1 -2.741,1.1 m 0.04,-11.622 c -1.64,0 -3.14,0.48 -4.541,1.46 l -1.4,-1.44 -1.14,1.06 1.5,1.381 c -1.04,1.5 -1.44,2.72 -1.44,4.38 0,4.081 2.841,6.862 6.981,6.862 1.921,0 3.381,-0.46 4.561,-1.421 L 2.141,4.221 3.301,3.181 1.88,1.82 C 2.821,0.6 3.301,-0.86 3.301,-2.5 3.301,-6.521 0.4,-9.362 -3.701,-9.362" /></g><g
           transform="translate(244.4121,518.6997)"
           id="g68"><path
             id="path70"
             style="fill:#065095;fill-opacity:1;fill-rule:nonzero;stroke:none"
             d="M 0,0 H -1.641 V -3.641 H 0 c 1.6,0 2.3,0.56 2.3,1.88 C 2.3,-0.5 1.64,0 0,0 m 2.641,-11.063 -3.021,5.282 h -1.261 v -5.282 h -2.52 V 2.14 H 0.24 c 1.92,0 2.801,-0.24 3.581,-0.98 0.72,-0.66 1.08,-1.62 1.08,-2.861 0,-1.02 -0.24,-1.84 -0.72,-2.48 -0.5,-0.64 -0.96,-0.92 -2.061,-1.22 l 3.281,-5.662 z" /></g><g
           transform="translate(259.6128,517.8394)"
           id="g72"><path
             id="path74"
             style="fill:#065095;fill-opacity:1;fill-rule:nonzero;stroke:none"
             d="m 0,0 c -0.7,0.52 -1.72,0.78 -3.161,0.78 h -2 v -8.761 h 2 c 3.001,0 4.682,1.58 4.682,4.4 C 1.521,-2.081 0.94,-0.7 0,0 m 2.42,-8.262 c -1.22,-1.3 -2.96,-1.94 -5.34,-1.94 H -7.802 V 3 H -2.9 c 2.5,0 4.06,-0.56 5.36,-1.94 1.141,-1.22 1.781,-2.9 1.781,-4.621 0,-1.76 -0.66,-3.46 -1.821,-4.701" /></g><g
           transform="translate(266.1514,507.6372)"
           id="g76"><path
             id="path78"
             style="fill:#065095;fill-opacity:1;fill-rule:nonzero;stroke:none"
             d="m 0,0 v 13.203 h 8.042 v -2.14 H 2.521 V 7.802 H 7.042 V 5.661 H 2.521 V 2.141 H 8.302 V 0 Z" /></g></g></g></g></svg>
