<?xml version="1.0" encoding="UTF-8" standalone="no"?>
<svg
   xmlns:dc="http://purl.org/dc/elements/1.1/"
   xmlns:cc="http://creativecommons.org/ns#"
   xmlns:rdf="http://www.w3.org/1999/02/22-rdf-syntax-ns#"
   xmlns:svg="http://www.w3.org/2000/svg"
   xmlns="http://www.w3.org/2000/svg"
   xmlns:sodipodi="http://sodipodi.sourceforge.net/DTD/sodipodi-0.dtd"
   xmlns:inkscape="http://www.inkscape.org/namespaces/inkscape"
   inkscape:version="1.0 (4035a4f, 2020-05-01)"
   sodipodi:docname="stop.html"
   viewBox="0 0 204.8 204.8"
   height="204.8"
   width="204.8"
   id="svg276"
   version="1.1">
  <metadata
     id="metadata282">
    <rdf:RDF>
      <cc:Work
         rdf:about="">
        <dc:format>image/svg+xml</dc:format>
        <dc:type
           rdf:resource="http://purl.org/dc/dcmitype/StillImage" />
        <dc:title></dc:title>
      </cc:Work>
    </rdf:RDF>
  </metadata>
  <defs
     id="defs280" />
  <sodipodi:namedview
     inkscape:current-layer="g284"
     inkscape:window-maximized="0"
     inkscape:window-y="40"
     inkscape:window-x="83"
     inkscape:cy="102.4"
     inkscape:cx="102.4"
     inkscape:zoom="3.4228515"
     showgrid="false"
     id="namedview278"
     inkscape:window-height="1055"
     inkscape:window-width="1744"
     inkscape:pageshadow="2"
     inkscape:pageopacity="0"
     guidetolerance="10"
     gridtolerance="10"
     objecttolerance="10"
     borderopacity="1"
     bordercolor="#666666"
     pagecolor="#ffffff" />
  <g
     id="g284"
     inkscape:label="Image"
     inkscape:groupmode="layer">
    <path
       id="path288"
       d="M 5.5984429,199.3306 0.16394597,193.88904 46.50897,147.54319 92.853994,101.19734 69.546995,77.736871 C 31.137324,39.074282 7.0535011,15.923522 1.691684,12.510431 0.95011017,12.038379 0.33811017,11.578566 0.33168397,11.488624 0.32525397,11.398684 2.7687,8.8795716 5.7615555,5.8906004 L 11.203111,0.45610729 56.801555,46.053709 102.4,91.651312 l 45.59963,-45.59879 45.59963,-45.59878746 5.51958,5.51957886 5.51958,5.5195786 -45.59879,45.59963 -45.59879,45.599638 45.5976,45.59844 45.59761,45.59845 -5.4345,5.44155 c -2.98897,2.99286 -5.51129,5.44156 -5.60517,5.44156 -0.0939,0 -5.27131,-5.292 -11.50542,-11.76 -23.85156,-24.7464 -73.61595,-75.90904 -77.1057,-79.27218 l -1.32008,-1.27218 -46.153001,46.15218 c -25.384153,25.3837 -46.226409,46.15218 -46.316123,46.15218 -0.08971,0 -2.6086396,-2.4487 -5.5976131,-5.44156 z"
       style="fill:#000000;stroke-width:0.32" />
  </g>
</svg>
