<svg width="15px" height="20px" viewBox="0 0 15 20" version="1.1" xmlns="http://www.w3.org/2000/svg" xmlns:xlink="http://www.w3.org/1999/xlink">
    <g id="Page-1" stroke="none" stroke-width="1" fill="none" fill-rule="evenodd">
        <g id="Results-frontpage-Copy-2" transform="translate(-160.000000, -474.000000)" fill="#7EBEC7">
            <g id="Top-pic" transform="translate(0.000000, 110.000000)">
                <g id="velg-register" transform="translate(130.000000, 340.000000)">
                    <g id="Fill-879-+-Fill-880" transform="translate(30.000000, 24.000000)">
                        <polygon id="Fill-879" points="8.33333333 9.16708333 6.66666667 9.16708333 6.66666667 11.6670833 4.16666667 11.6670833 4.16666667 13.33375 6.66666667 13.33375 6.66666667 15.83375 8.33333333 15.83375 8.33333333 13.33375 10.8333333 13.33375 10.8333333 11.6670833 8.33333333 11.6670833"></polygon>
                        <path d="M13.3333333,17.5004167 L1.66666667,17.5004167 L1.66666667,5.83375 L3.33333333,5.83375 L3.33333333,7.50041667 L11.6666667,7.50041667 L11.6666667,5.83375 L13.3333333,5.83375 L13.3333333,17.5004167 Z M5,4.16708333 L10,4.16708333 L10,5.83375 L5,5.83375 L5,4.16708333 Z M7.5,1.66708333 C8.11583333,1.66708333 8.65416667,2.00208333 8.9425,2.50041667 L6.0575,2.50041667 C6.34583333,2.00208333 6.88416667,1.66708333 7.5,1.66708333 L7.5,1.66708333 Z M13.3333333,4.16708333 L11.6666667,4.16708333 L11.6666667,2.50041667 L10.715,2.50041667 C10.3425,1.06708333 9.04833333,0.000416666667 7.5,0.000416666667 C5.95166667,0.000416666667 4.6575,1.06708333 4.285,2.50041667 L3.33333333,2.50041667 L3.33333333,4.16708333 L1.66666667,4.16708333 C0.7475,4.16708333 0,4.91458333 0,5.83375 L0,17.5004167 C0,18.41875 0.7475,19.1670833 1.66666667,19.1670833 L13.3333333,19.1670833 C14.2525,19.1670833 15,18.41875 15,17.5004167 L15,5.83375 C15,4.91458333 14.2525,4.16708333 13.3333333,4.16708333 L13.3333333,4.16708333 Z" id="Fill-880"></path>
                    </g>
                </g>
            </g>
        </g>
    </g>
</svg>