<?xml version="1.0" encoding="utf-8"?>
<!-- Generator: Adobe Illustrator 22.0.1, SVG Export Plug-In . SVG Version: 6.00 Build 0)  -->
<svg version="1.1" id="Layer_1" xmlns="http://www.w3.org/2000/svg" xmlns:xlink="http://www.w3.org/1999/xlink" x="0px" y="0px"
	 viewBox="0 0 109.4 27.5" style="enable-background:new 0 0 109.4 27.5;" xml:space="preserve">
<style type="text/css">
	.st0{fill:#464B4E;}
	.st1{fill:#FFFFFF;}
	.st2{fill:#FAFDFF;}
</style>
<path class="st0" d="M62.4,3.4c0,1.9-1.5,3.4-3.4,3.4s-3.4-1.5-3.4-3.4S57.2,0,59,0C60.9,0,62.4,1.5,62.4,3.4z"/>
<path class="st0" d="M62.4,13.7c0,1.9-1.5,3.4-3.4,3.4s-3.4-1.5-3.4-3.4s1.5-3.4,3.4-3.4C60.9,10.3,62.4,11.9,62.4,13.7z"/>
<path class="st1" d="M52.1,13.7c0,1.9-1.5,3.4-3.4,3.4s-3.4-1.5-3.4-3.4s1.5-3.4,3.4-3.4C50.5,10.3,52.1,11.9,52.1,13.7z"/>
<path class="st0" d="M72.8,13.7c0,1.9-1.5,3.4-3.4,3.4S66,15.6,66,13.7s1.5-3.4,3.4-3.4C71.2,10.3,72.8,11.9,72.8,13.7z"/>
<path class="st0" d="M62.4,24.1c0,1.9-1.5,3.4-3.4,3.4s-3.4-1.5-3.4-3.4s1.5-3.4,3.4-3.4S62.4,22.2,62.4,24.1z"/>
<g>
	<g>
		<g>
			<g>
				<path class="st2" d="M6.5,18.3v-4.2H1.1v4.2H0V9.1h1.1V13h5.4V9.1h1.1v9.2H6.5z"/>
				<path class="st2" d="M10.9,18.3V9.1H16v1h-4v3.1h3.3v1H12v3.2h4.1v1h-5.2C10.9,18.4,10.9,18.3,10.9,18.3z"/>
				<path class="st2" d="M18.5,18.3V9.1h1.1v8.2h4.1v1H18.5z"/>
				<path class="st2" d="M30.2,10.7c-0.5-0.3-0.7-0.4-1-0.5C28.9,10.1,28.3,10,28,10c-1,0-1.7,0.5-1.7,1.3c0,0.7,0.4,1,2.3,2
					c0.6,0.3,1.1,0.6,1.4,0.9c0.4,0.4,0.7,1,0.7,1.7c0,1.6-1.2,2.6-3,2.6c-0.6,0-1.2-0.1-1.7-0.3c-0.3-0.1-0.6-0.3-1.2-0.7l0.6-0.9
					c0.5,0.3,0.7,0.5,1.1,0.6c0.4,0.2,0.8,0.2,1.3,0.2c1.1,0,1.7-0.5,1.7-1.4c0-0.3,0-0.5-0.1-0.7c-0.2-0.3-0.4-0.5-0.8-0.7
					c-0.2-0.1-0.7-0.3-1.5-0.8c-1.4-0.7-2-1.5-2-2.4c0-1.5,1.2-2.4,3-2.4c0.5,0,1.1,0.1,1.5,0.2c0.4,0.1,0.6,0.2,1.1,0.5L30.2,10.7z
					"/>
				<path class="st2" d="M33.1,18.3V9.1h5.1v1h-4v3.1h3.3v1h-3.3v3.2h4.1v1h-5.2C33.1,18.4,33.1,18.3,33.1,18.3z"/>
			</g>
			<g>
				<path class="st2" d="M6.5,18.3v-4.2H1.1v4.2H0V9.1h1.1V13h5.4V9.1h1.1v9.2H6.5z"/>
				<path class="st2" d="M10.9,18.3V9.1H16v1h-4v3.1h3.3v1H12v3.2h4.1v1h-5.2C10.9,18.4,10.9,18.3,10.9,18.3z"/>
				<path class="st2" d="M18.5,18.3V9.1h1.1v8.2h4.1v1H18.5z"/>
				<path class="st2" d="M30.2,10.7c-0.5-0.3-0.7-0.4-1-0.5C28.9,10.1,28.3,10,28,10c-1,0-1.7,0.5-1.7,1.3c0,0.7,0.4,1,2.3,2
					c0.6,0.3,1.1,0.6,1.4,0.9c0.4,0.4,0.7,1,0.7,1.7c0,1.6-1.2,2.6-3,2.6c-0.6,0-1.2-0.1-1.7-0.3c-0.3-0.1-0.6-0.3-1.2-0.7l0.6-0.9
					c0.5,0.3,0.7,0.5,1.1,0.6c0.4,0.2,0.8,0.2,1.3,0.2c1.1,0,1.7-0.5,1.7-1.4c0-0.3,0-0.5-0.1-0.7c-0.2-0.3-0.4-0.5-0.8-0.7
					c-0.2-0.1-0.7-0.3-1.5-0.8c-1.4-0.7-2-1.5-2-2.4c0-1.5,1.2-2.4,3-2.4c0.5,0,1.1,0.1,1.5,0.2c0.4,0.1,0.6,0.2,1.1,0.5L30.2,10.7z
					"/>
				<path class="st2" d="M33.1,18.3V9.1h5.1v1h-4v3.1h3.3v1h-3.3v3.2h4.1v1h-5.2C33.1,18.4,33.1,18.3,33.1,18.3z"/>
			</g>
		</g>
	</g>
</g>
<g>
	<g>
		<g>
			<g>
				<path class="st2" d="M83.3,18.6H82l-3.4-9.4h1.9l2.1,6.2v0.1v0.2v0.2v-0.1c0-0.1,0-0.2,0-0.2l0.1-0.1l2-6.2h1.8L83.3,18.6z"/>
				<path class="st2" d="M88.1,18.3V9.1h5.6v1.5h-3.8v2.3H93v1.5h-3.1v2.4h4v1.5C93.9,18.3,88.1,18.3,88.1,18.3z"/>
				<path class="st2" d="M100.8,11.3c-1-0.4-1.8-0.7-2.4-0.7c-0.8,0-1.3,0.3-1.3,0.8c0,0.4,0.2,0.6,0.9,1c1.4,0.7,2.3,1.3,2.7,1.8
					c0.4,0.4,0.6,1,0.6,1.6c0,1.6-1.2,2.6-3.2,2.6c-0.3,0-0.6,0-0.8-0.1c-0.7-0.1-1-0.2-1.9-0.6c-0.1-0.1-0.3-0.2-0.6-0.3l0.7-1.6
					c0.7,0.4,0.9,0.5,1.3,0.6c0.5,0.2,1,0.3,1.3,0.3c0.8,0,1.3-0.4,1.3-0.9c0-0.4-0.2-0.7-0.8-1L97.2,14c-1.6-0.9-2.1-1.5-2.1-2.5
					c0-0.5,0.1-0.9,0.4-1.3c0.2-0.2,0.4-0.5,0.7-0.7C96.8,9.1,97.4,9,98.4,9c0.6,0,1.2,0.1,1.7,0.2c0.4,0.1,0.7,0.2,1.3,0.5
					L100.8,11.3z"/>
				<path class="st2" d="M106.6,10.6v7.7h-1.7v-7.7h-2.7V9.1h7.2v1.5H106.6z"/>
			</g>
			<g>
				<path class="st2" d="M83.3,18.6H82l-3.4-9.4h1.9l2.1,6.2v0.1v0.2v0.2v-0.1c0-0.1,0-0.2,0-0.2l0.1-0.1l2-6.2h1.8L83.3,18.6z"/>
				<path class="st2" d="M88.1,18.3V9.1h5.6v1.5h-3.8v2.3H93v1.5h-3.1v2.4h4v1.5C93.9,18.3,88.1,18.3,88.1,18.3z"/>
				<path class="st2" d="M100.8,11.3c-1-0.4-1.8-0.7-2.4-0.7c-0.8,0-1.3,0.3-1.3,0.8c0,0.4,0.2,0.6,0.9,1c1.4,0.7,2.3,1.3,2.7,1.8
					c0.4,0.4,0.6,1,0.6,1.6c0,1.6-1.2,2.6-3.2,2.6c-0.3,0-0.6,0-0.8-0.1c-0.7-0.1-1-0.2-1.9-0.6c-0.1-0.1-0.3-0.2-0.6-0.3l0.7-1.6
					c0.7,0.4,0.9,0.5,1.3,0.6c0.5,0.2,1,0.3,1.3,0.3c0.8,0,1.3-0.4,1.3-0.9c0-0.4-0.2-0.7-0.8-1L97.2,14c-1.6-0.9-2.1-1.5-2.1-2.5
					c0-0.5,0.1-0.9,0.4-1.3c0.2-0.2,0.4-0.5,0.7-0.7C96.8,9.1,97.4,9,98.4,9c0.6,0,1.2,0.1,1.7,0.2c0.4,0.1,0.7,0.2,1.3,0.5
					L100.8,11.3z"/>
				<path class="st2" d="M106.6,10.6v7.7h-1.7v-7.7h-2.7V9.1h7.2v1.5H106.6z"/>
			</g>
		</g>
	</g>
</g>
</svg>
