<svg width="98" height="42" viewBox="0 0 98 42" fill="none" xmlns="http://www.w3.org/2000/svg">
<g clip-path="url(#clip0_4182_7505)">
<path d="M26.1581 5.18112C26.1581 8.04274 23.8365 10.3639 20.9789 10.3639C18.1213 10.3639 15.8037 8.04274 15.8037 5.18112C15.8037 2.31949 18.1221 0 20.9789 0C23.8357 0 26.1581 2.3203 26.1581 5.18112Z" fill="#003087"/>
<path d="M26.1581 20.9858C26.1581 23.8458 23.8365 26.1669 20.9789 26.1669C18.1213 26.1669 15.8037 23.8466 15.8037 20.9858C15.8037 18.1249 18.1221 15.8038 20.9789 15.8038C23.8357 15.8038 26.1581 18.1249 26.1581 20.9858Z" fill="#6CACE4"/>
<path d="M10.3512 20.9858C10.3512 23.8458 8.03361 26.1669 5.17437 26.1669C2.31513 26.1669 0 23.8458 0 20.9858C0 18.1258 2.31756 15.8038 5.17518 15.8038C8.0328 15.8038 10.352 18.1249 10.352 20.9858" fill="#6CACE4"/>
<path d="M41.9715 20.9858C41.9715 23.8458 39.6555 26.1669 36.7963 26.1669C33.937 26.1669 31.6211 23.8466 31.6211 20.9858C31.6211 18.1249 33.9387 15.8038 36.7963 15.8038C39.6539 15.8038 41.9715 18.1249 41.9715 20.9858Z" fill="#6CACE4"/>
<path d="M26.1581 36.8205C26.1581 39.6789 23.8365 42 20.9789 42C18.1213 42 15.8037 39.6789 15.8037 36.8205C15.8037 33.9621 18.1221 31.637 20.9789 31.637C23.8357 31.637 26.1581 33.9589 26.1581 36.8205Z" fill="#6CACE4"/>
<path d="M60.9908 16.2081C59.6049 15.5937 58.4762 15.2772 57.6052 15.2772C56.4367 15.2772 55.685 15.7528 55.685 16.4856C55.685 17.0408 56.0021 17.3776 56.9322 17.8726C58.9319 18.9423 60.2382 19.775 60.8521 20.3893C61.4068 20.9445 61.7433 21.8161 61.7433 22.7275C61.7433 25.0657 60.0404 26.4324 57.1503 26.4324C56.7546 26.4324 56.3581 26.4129 55.9818 26.3528C55.0517 26.2343 54.6154 26.0753 53.2499 25.4414L52.3984 25.0454L53.4477 22.747C54.3981 23.2623 54.7938 23.4604 55.3088 23.6584C55.9624 23.8962 56.6751 24.0349 57.1893 24.0349C58.3375 24.0349 59.09 23.5196 59.09 22.7275C59.09 22.1724 58.7932 21.7966 57.9418 21.321L55.9226 20.1718C53.6067 18.8441 52.8939 17.9725 52.8939 16.5457C52.8939 15.8916 53.0918 15.218 53.4088 14.7229C53.627 14.3861 53.9635 14.0493 54.3787 13.7522C55.329 13.0981 56.1408 12.8806 57.6653 12.8806C58.5362 12.8806 59.3081 12.9796 60.1199 13.2174C60.7532 13.4154 61.11 13.5542 61.9809 13.9706L60.9908 16.2097V16.2081Z" fill="#003087"/>
<path d="M71.1671 26.1742L66.8117 19.9527V26.1742H64.3174V13.0964H66.8117V19.1995L70.91 13.0964H73.7806L69.2866 19.4568L74.0182 26.1734H71.1671V26.1742Z" fill="#003087"/>
<path d="M85.8375 24.2524C84.6301 25.5404 82.9077 26.1742 80.5512 26.1742H75.7207V13.0964H80.5715C83.0464 13.0964 84.5904 13.6516 85.8773 15.0183C87.006 16.2267 87.6394 17.8912 87.6394 19.5956C87.6394 21.2999 86.9858 23.0237 85.8375 24.2516V24.2524ZM83.4413 16.0692C82.748 15.5539 81.7384 15.2966 80.3137 15.2966H78.3342V23.9748H80.3137C83.2832 23.9748 84.9463 22.4093 84.9463 19.6158C84.9463 18.1298 84.3722 16.7623 83.4421 16.0692H83.4413Z" fill="#003087"/>
<path d="M89.7832 26.1742V13.0964H97.7422V15.2163H92.2784V18.4464H96.7529V20.5662H92.2784V24.0536H98.0001V26.1734H89.784L89.7832 26.1742Z" fill="#003087"/>
</g>
<defs>
<clipPath id="clip0_4182_7505">
<rect width="98" height="42" fill="white"/>
</clipPath>
</defs>
</svg>
